<svg width="44" height="44" viewBox="0 0 44 44" fill="none" xmlns="http://www.w3.org/2000/svg">
<path d="M22.0003 40.3332C11.8748 40.3332 3.66699 32.1253 3.66699 21.9998C3.66699 11.8743 11.8748 3.6665 22.0003 3.6665C30.21 3.6665 37.0813 9.062 39.417 16.4998H34.8337" stroke="#2A2575" stroke-width="2.5" stroke-linecap="round" stroke-linejoin="round"/>
<path d="M22 14.6665V21.9998L25.6667 25.6665M40.2508 23.8332C40.3058 23.2282 40.3333 22.6171 40.3333 21.9998M27.5 40.3332C28.1235 40.1266 28.7355 39.8867 29.3333 39.6145M38.115 31.1665C38.4707 30.4845 38.7854 29.7793 39.0592 29.0508M33.352 37.0863C33.9851 36.5632 34.5822 35.9998 35.1432 35.396" stroke="#2A2575" stroke-width="2.5" stroke-linecap="round" stroke-linejoin="round"/>
</svg>
