<svg width="46" height="46" viewBox="0 0 46 46" fill="none" xmlns="http://www.w3.org/2000/svg">
<path d="M17.25 3.375C20.9299 3.375 24.4595 4.83641 27.0615 7.43848C29.6636 10.0405 31.125 13.5701 31.125 17.25C31.125 20.9299 29.6636 24.4595 27.0615 27.0615C24.4595 29.6636 20.9299 31.125 17.25 31.125C13.5701 31.125 10.0405 29.6636 7.43848 27.0615C4.83641 24.4595 3.375 20.9299 3.375 17.25C3.375 13.5701 4.83641 10.0405 7.43848 7.43848C10.0405 4.83641 13.5701 3.375 17.25 3.375Z" fill="white" stroke="#2A2575"/>
<path d="M19.4542 15.3334V16.9625H15.8126V18.3042H19.4542V19.9334H15.8126C15.8126 20.5084 15.9084 21.0834 16.1001 21.4667C16.2917 21.85 16.4834 22.2334 16.7709 22.425C17.0584 22.7125 17.4417 22.8084 17.8251 23C18.2084 23.0959 18.6876 23.1917 19.1667 23.1917C19.5501 23.1917 19.8376 23.1917 20.2209 23.0959C20.6042 23 20.8917 23 21.1792 22.8084L21.5626 25.3959C21.1792 25.4917 20.7001 25.5875 20.2209 25.5875C19.7417 25.6834 19.2626 25.6834 18.7834 25.6834C17.9209 25.6834 17.0584 25.5875 16.2917 25.3C15.5251 25.1084 14.8542 24.725 14.3751 24.2459C13.8001 23.7667 13.4167 23.1917 13.0334 22.425C12.7459 21.7542 12.5542 20.8917 12.5542 19.9334H10.7334V18.3042H12.5542V16.9625H10.7334V15.3334H12.5542C12.6501 14.375 12.8417 13.6084 13.1292 12.8417C13.5126 12.1709 13.8959 11.5 14.4709 11.0209C15.0459 10.5417 15.7167 10.1584 16.4834 9.96671C17.2501 9.67921 18.1126 9.58337 18.9751 9.58337C19.3584 9.58337 19.8376 9.58337 20.2209 9.67921C20.6042 9.77504 21.0834 9.77504 21.4667 9.96671L21.0834 12.5542C20.7959 12.4584 20.5084 12.3625 20.1251 12.2667C19.7417 12.1709 19.4542 12.1709 19.0709 12.1709C18.5917 12.1709 18.1126 12.2667 17.7292 12.3625C17.3459 12.4584 16.9626 12.65 16.7709 12.9375C16.4834 13.225 16.2917 13.5125 16.1001 13.8959C15.9084 14.2792 15.8126 14.7584 15.8126 15.3334H19.4542Z" fill="#2A2575"/>
<path d="M28.75 14.875C32.4299 14.875 35.9595 16.3364 38.5615 18.9385C41.1636 21.5405 42.625 25.0701 42.625 28.75C42.625 32.4299 41.1636 35.9595 38.5615 38.5615C35.9595 41.1636 32.4299 42.625 28.75 42.625C25.0701 42.625 21.5405 41.1636 18.9385 38.5615C16.3364 35.9595 14.875 32.4299 14.875 28.75C14.875 25.0701 16.3364 21.5405 18.9385 18.9385C21.5405 16.3364 25.0701 14.875 28.75 14.875Z" fill="#D6E0E9" stroke="#3B63B8"/>
<path d="M27.217 25.8748C27.3128 26.0664 27.4087 26.2581 27.6003 26.4498C27.792 26.6414 27.9837 26.8331 28.2712 26.9289C28.5587 27.1206 28.942 27.2164 29.3253 27.4081C29.9962 27.6956 30.667 27.9831 31.242 28.2706C31.817 28.5581 32.2962 28.9414 32.6795 29.3248C33.0628 29.7081 33.4462 30.1873 33.6378 30.6664C33.8295 31.1456 34.0212 31.8164 34.0212 32.4873C34.0212 33.1581 33.9253 33.7331 33.7337 34.2123C33.542 34.6914 33.2545 35.1706 32.8712 35.5539C32.4878 35.9373 32.0087 36.2248 31.5295 36.4164C30.9545 36.6081 30.3795 36.7998 29.8045 36.8956V39.0039H28.0795V36.8956C27.5045 36.7998 26.9295 36.7039 26.3545 36.5123C25.7795 36.3206 25.3003 36.0331 24.917 35.5539C24.4378 35.1706 24.1503 34.5956 23.8628 34.0206C23.5753 33.4456 23.4795 32.6789 23.4795 31.8164H26.642C26.642 32.2956 26.7378 32.7748 26.8337 33.0623C26.9295 33.4456 27.1212 33.6373 27.4087 33.9248C27.6003 34.1164 27.8878 34.3081 28.1753 34.4039C28.4628 34.4998 28.7503 34.4998 29.0378 34.4998C29.4212 34.4998 29.7087 34.4998 29.9003 34.4039C30.1878 34.3081 30.3795 34.2123 30.5712 34.0206C30.7628 33.8289 30.8587 33.6373 30.9545 33.4456C31.0503 33.2539 31.0503 32.9664 31.0503 32.6789C31.0503 32.3914 31.0503 32.1039 30.9545 31.9123C30.8587 31.7206 30.7628 31.4331 30.5712 31.2414C30.3795 31.0498 30.1878 30.8581 29.9003 30.7623C29.6128 30.5706 29.2295 30.4748 28.8462 30.2831C28.1753 29.9956 27.5045 29.7081 26.9295 29.4206C26.3545 29.1331 25.8753 28.7498 25.492 28.3664C25.1087 27.9831 24.7253 27.5039 24.5337 27.0248C24.342 26.5456 24.1503 25.8748 24.1503 25.2039C24.1503 24.6289 24.2462 24.0539 24.4378 23.5748C24.6295 23.0956 24.917 22.6164 25.3003 22.2331C25.6837 21.8498 26.1628 21.5623 26.642 21.2748C27.1212 21.0831 27.792 20.8914 28.367 20.7956V18.4956H30.092V20.7956C30.667 20.8914 31.242 21.0831 31.817 21.3706C32.2962 21.6581 32.7753 21.9456 33.0628 22.4248C33.4462 22.8081 33.7337 23.3831 33.9253 23.9581C34.117 24.5331 34.2128 25.2039 34.2128 25.8748H31.0503C31.0503 25.0123 30.8587 24.3414 30.4753 23.9581C30.092 23.5748 29.6128 23.2873 29.0378 23.2873C28.7503 23.2873 28.4628 23.3831 28.1753 23.4789C27.9837 23.5748 27.792 23.6706 27.6003 23.8623C27.4087 24.0539 27.3128 24.2456 27.3128 24.4373C27.217 24.6289 27.217 24.9164 27.217 25.2039C27.1212 25.3956 27.217 25.6831 27.217 25.8748Z" fill="#2A2575"/>
</svg>
