<svg width="42" height="42" viewBox="0 0 42 42" fill="none" xmlns="http://www.w3.org/2000/svg">
<path d="M7 28V35H14V38.5H3.5V28H7ZM38.5 28V38.5H28V35H35V28H38.5ZM13.125 12.25C13.1244 14.0349 13.7302 15.767 14.843 17.1625C15.9558 18.558 17.5097 19.5341 19.25 19.9307V29.75H22.75L22.7518 19.929C24.4914 19.5321 26.0447 18.5561 27.1571 17.161C28.2696 15.7659 28.8753 14.0344 28.875 12.25H32.375C32.3754 14.3314 31.8047 16.3731 30.725 18.1526C29.6453 19.9321 28.0981 21.3813 26.2518 22.3423L26.25 33.25H15.75V22.344C13.9031 21.3831 12.3553 19.9338 11.2753 18.1539C10.1953 16.3741 9.62445 14.3319 9.625 12.25H13.125ZM21 8.75C22.1603 8.75 23.2731 9.21094 24.0936 10.0314C24.9141 10.8519 25.375 11.9647 25.375 13.125C25.375 14.2853 24.9141 15.3981 24.0936 16.2186C23.2731 17.0391 22.1603 17.5 21 17.5C19.8397 17.5 18.7269 17.0391 17.9064 16.2186C17.0859 15.3981 16.625 14.2853 16.625 13.125C16.625 11.9647 17.0859 10.8519 17.9064 10.0314C18.7269 9.21094 19.8397 8.75 21 8.75ZM14 3.5V7L7 6.99825V14H3.5V3.5H14ZM38.5 3.5V14H35V7H28V3.5H38.5Z" fill="currentColor"/>
</svg>
