<svg width="42" height="42" viewBox="0 0 42 42" fill="none" xmlns="http://www.w3.org/2000/svg">
<path d="M21 28L26.25 38.5H15.75L21 28ZM16.4028 28.4462C14.7829 27.4457 13.5336 25.9442 12.8443 24.1694C12.1551 22.3946 12.0636 20.4434 12.5836 18.6119C13.1036 16.7803 14.2069 15.1684 15.7259 14.0206C17.245 12.8728 19.0969 12.2518 21.0009 12.2518C22.9048 12.2518 24.7568 12.8728 26.2758 14.0206C27.7949 15.1684 28.8981 16.7803 29.4182 18.6119C29.9382 20.4434 29.8466 22.3946 29.1574 24.1694C28.4682 25.9442 27.2189 27.4457 25.599 28.4462L23.226 23.702C23.7823 23.2435 24.1835 22.6244 24.3747 21.9293C24.5659 21.2342 24.5377 20.4971 24.2942 19.8185C24.0506 19.14 23.6035 18.5533 23.0138 18.1385C22.4242 17.7237 21.7209 17.5011 21 17.5011C20.2791 17.5011 19.5758 17.7237 18.9862 18.1385C18.3965 18.5533 17.9494 19.14 17.7058 19.8185C17.4623 20.4971 17.4341 21.2342 17.6253 21.9293C17.8165 22.6244 18.2177 23.2435 18.774 23.702L16.4028 28.4462ZM12.481 36.2897C9.75783 34.7722 7.48949 32.5547 5.91056 29.8666C4.33163 27.1785 3.49942 24.1175 3.5 21C3.5 11.3348 11.3348 3.5 21 3.5C30.6652 3.5 38.5 11.3348 38.5 21C38.5008 24.1173 37.6688 27.1782 36.0902 29.8663C34.5116 32.5543 32.2436 34.7719 29.5207 36.2897L27.1687 31.5858C29.4948 30.23 31.3094 28.1457 32.332 25.6551C33.3546 23.1646 33.5282 20.4065 32.826 17.8074C32.1238 15.2082 30.5849 12.9128 28.4473 11.276C26.3096 9.63928 23.6923 8.75232 21 8.75232C18.3077 8.75232 15.6904 9.63928 13.5527 11.276C11.4151 12.9128 9.87617 15.2082 9.17398 17.8074C8.47179 20.4065 8.64542 23.1646 9.66801 25.6551C10.6906 28.1457 12.5052 30.23 14.8313 31.5858L12.481 36.2897Z" fill="currentColor"/>
</svg>
