<svg width="42" height="42" viewBox="0 0 42 42" fill="none" xmlns="http://www.w3.org/2000/svg">
<path d="M19.0312 33.5331H22.9688V38.0625H19.0312V33.5331ZM19.0312 3.9375H22.9688V8.46694H19.0312V3.9375ZM33.5331 19.0319H38.0625V22.9694H33.5331V19.0319ZM3.9375 19.0319H8.46694V22.9694H3.9375V19.0319ZM10.3267 34.4571L7.54294 31.6733L10.7461 28.4707L13.5299 31.2539L10.3267 34.4571ZM31.6733 7.54294L34.4571 10.3261L31.2546 13.5286L28.4701 10.7454L31.6733 7.54294ZM31.6713 34.4577L28.4688 31.2552L31.2513 28.4714L34.4551 31.6739L31.6713 34.4577ZM10.3267 7.54294L13.5299 10.7454L10.7461 13.5299L7.54359 10.3267L10.3267 7.54294ZM21 11.1562C15.563 11.1562 11.1562 15.5636 11.1562 21C11.1562 26.4364 15.563 30.8438 21 30.8438C26.4357 30.8438 30.8438 26.4364 30.8438 21C30.8438 15.5636 26.4357 11.1562 21 11.1562ZM21 27.5625C17.3755 27.5625 14.4375 24.6238 14.4375 21C14.4375 17.3762 17.3755 14.4375 21 14.4375C24.6232 14.4375 27.5625 17.3762 27.5625 21C27.5625 24.6238 24.6232 27.5625 21 27.5625Z" fill="currentColor"/>
</svg>
