<svg width="42" height="42" viewBox="0 0 42 42" fill="none" xmlns="http://www.w3.org/2000/svg">
<path d="M36.75 20.3805V36.75C36.75 37.2141 36.5656 37.6592 36.2374 37.9874C35.9092 38.3156 35.4641 38.5 35 38.5H7C6.53587 38.5 6.09075 38.3156 5.76256 37.9874C5.43437 37.6592 5.25 37.2141 5.25 36.75V20.3805C4.12217 19.1017 3.49989 17.4551 3.5 15.75V5.25C3.5 4.78587 3.68437 4.34075 4.01256 4.01256C4.34075 3.68437 4.78587 3.5 5.25 3.5H36.75C37.2141 3.5 37.6592 3.68437 37.9874 4.01256C38.3156 4.34075 38.5 4.78587 38.5 5.25V15.75C38.5001 17.4551 37.8778 19.1017 36.75 20.3805ZM33.25 22.5295C31.9985 22.8504 30.6826 22.8196 29.4475 22.4404C28.2123 22.0612 27.1059 21.3484 26.25 20.3805C25.5931 21.1253 24.7852 21.7217 23.88 22.1303C22.9748 22.5388 21.9931 22.7501 21 22.75C20.0069 22.7501 19.0252 22.5388 18.12 22.1303C17.2148 21.7217 16.4069 21.1253 15.75 20.3805C14.8965 21.3516 13.7902 22.0668 12.5543 22.4462C11.3184 22.8256 10.0014 22.8545 8.75 22.5295V35H33.25V22.5295ZM24.5 15.75C24.5 15.2859 24.6844 14.8408 25.0126 14.5126C25.3408 14.1844 25.7859 14 26.25 14C26.7141 14 27.1592 14.1844 27.4874 14.5126C27.8156 14.8408 28 15.2859 28 15.75C28 16.6783 28.3687 17.5685 29.0251 18.2249C29.6815 18.8813 30.5717 19.25 31.5 19.25C32.4283 19.25 33.3185 18.8813 33.9749 18.2249C34.6313 17.5685 35 16.6783 35 15.75V7H7V15.75C7 16.6783 7.36875 17.5685 8.02513 18.2249C8.6815 18.8813 9.57174 19.25 10.5 19.25C11.4283 19.25 12.3185 18.8813 12.9749 18.2249C13.6313 17.5685 14 16.6783 14 15.75C14 15.2859 14.1844 14.8408 14.5126 14.5126C14.8408 14.1844 15.2859 14 15.75 14C16.2141 14 16.6592 14.1844 16.9874 14.5126C17.3156 14.8408 17.5 15.2859 17.5 15.75C17.5 16.6783 17.8687 17.5685 18.5251 18.2249C19.1815 18.8813 20.0717 19.25 21 19.25C21.9283 19.25 22.8185 18.8813 23.4749 18.2249C24.1313 17.5685 24.5 16.6783 24.5 15.75Z" fill="currentColor"/>
</svg>
