<svg width="44" height="44" viewBox="0 0 44 44" fill="none" xmlns="http://www.w3.org/2000/svg">
<path d="M22.0003 3.6665C30.067 3.6665 36.667 10.2665 36.667 18.3332C36.667 28.2332 23.8337 39.4165 23.2837 39.9665C22.917 40.1498 22.367 40.3332 22.0003 40.3332C21.6337 40.3332 21.0837 40.1498 20.717 39.9665C20.167 39.4165 7.33366 28.2332 7.33366 18.3332C7.33366 10.2665 13.9337 3.6665 22.0003 3.6665ZM22.0003 36.1165C25.8503 32.4498 33.0003 24.5665 33.0003 18.3332C33.0003 12.2832 28.0503 7.33317 22.0003 7.33317C15.9503 7.33317 11.0003 12.2832 11.0003 18.3332C11.0003 24.3832 18.1503 32.4498 22.0003 36.1165ZM22.0003 10.9998C26.0337 10.9998 29.3337 14.2998 29.3337 18.3332C29.3337 22.3665 26.0337 25.6665 22.0003 25.6665C17.967 25.6665 14.667 22.3665 14.667 18.3332C14.667 14.2998 17.967 10.9998 22.0003 10.9998ZM22.0003 21.9998C24.017 21.9998 25.667 20.3498 25.667 18.3332C25.667 16.3165 24.017 14.6665 22.0003 14.6665C19.9837 14.6665 18.3337 16.3165 18.3337 18.3332C18.3337 20.3498 19.9837 21.9998 22.0003 21.9998Z" fill="#2A2575"/>
</svg>
