<svg version="1.1" xmlns="http://www.w3.org/2000/svg" width="168" height="55" viewBox="0 125 168 55" style="background-color:transparent;">

<path fill="#D2D030" opacity="1.000000" stroke="none" 
	d="
M22.832581,135.972610 
	C20.721684,140.834518 19.041777,145.678650 17.251675,150.481735 
	C16.655542,152.081223 15.776978,153.575439 14.038412,155.110153 
	C10.659456,146.260132 9.353422,137.163086 7.521550,126.435867 
	C18.832838,130.290375 28.849466,133.703690 38.951740,137.146194 
	C35.259003,145.158691 32.172237,145.634933 27.111208,139.716873 
	C25.941336,138.348907 24.524017,137.192566 22.832581,135.972610 
z"/>
<path fill="#188975" opacity="1.000000" stroke="none" 
	d="
M106.101852,152.120560 
	C106.563652,150.975815 107.025459,149.831070 107.487267,148.686325 
	C108.433174,149.719208 109.589935,150.632431 110.263741,151.819733 
	C110.896149,152.934097 111.017998,154.338211 111.300880,155.380402 
	C112.691757,153.228561 114.159798,150.957336 115.627846,148.686111 
	C117.038353,150.841995 118.448853,152.997879 119.886482,155.195221 
	C122.038712,154.072067 119.041656,147.889511 125.275970,148.929047 
	C124.304611,152.499039 123.544106,155.845413 122.435463,159.072174 
	C122.042923,160.214691 120.801781,161.065643 119.948051,162.049713 
	C118.943726,161.024719 117.745003,160.123108 116.992943,158.938019 
	C116.319695,157.877151 116.138634,156.503906 115.987328,156.034515 
	C114.481895,157.925262 112.836952,159.991196 111.192017,162.057144 
	C109.998901,159.756775 108.762619,157.477295 107.634735,155.145370 
	C107.206963,154.260941 107.028885,153.255737 106.393806,152.200317 
	C106.050621,152.095032 106.101852,152.120560 106.101852,152.120560 
z"/>
<path fill="#0A846F" opacity="1.000000" stroke="none" 
	d="
M51.811775,149.371429 
	C53.392719,150.019028 54.750290,150.980530 56.107857,151.942017 
	C55.857784,152.417267 55.607708,152.892517 55.357635,153.367767 
	C57.640804,154.104416 59.676929,154.637146 59.755356,150.790253 
	C59.772148,149.966461 61.202454,149.171478 62.838978,147.473816 
	C62.838978,153.189392 62.838978,157.415237 62.838978,161.641068 
	C62.407543,161.874130 61.976109,162.107208 61.544678,162.340271 
	C60.604919,160.755569 59.665165,159.170868 58.221340,156.736160 
	C54.023552,154.843018 55.400581,159.447678 54.752319,161.728439 
	C51.225777,161.398285 51.225777,161.398285 51.811775,149.371429 
z"/>
<path fill="#118570" opacity="1.000000" stroke="none" 
	d="
M39.072502,153.628998 
	C38.753437,149.690903 41.174759,148.393417 43.970226,148.583603 
	C46.151134,148.731995 48.245380,150.154114 50.378139,151.010208 
	C50.132656,151.626907 49.887177,152.243607 49.641693,152.860291 
	C47.484394,152.332184 45.327095,151.804062 43.169792,151.275955 
	C43.011292,151.805023 42.852795,152.334091 42.694294,152.863159 
	C44.061161,153.317841 45.668144,153.466583 46.734825,154.303741 
	C48.103756,155.378143 50.039402,157.125336 49.891678,158.363174 
	C49.728897,159.727173 47.652454,161.539444 46.105301,161.920364 
	C42.905937,162.708099 39.832840,161.976013 38.228695,158.286285 
	C39.498146,158.049377 40.690620,157.826843 42.477226,157.493423 
	C41.121311,156.055725 40.152851,155.028854 39.072502,153.628998 
z"/>
<path fill="#1C8A76" opacity="1.000000" stroke="none" 
	d="
M106.039566,152.068634 
	C105.944183,152.965012 105.806702,153.886536 105.784843,154.810791 
	C105.697029,158.523422 104.326630,161.874924 100.376480,161.867599 
	C97.872620,161.862961 94.506767,160.322525 93.075912,158.348511 
	C90.976440,155.452011 91.846756,151.751328 95.073166,149.607071 
	C98.174019,147.546280 101.403206,147.948059 104.164001,150.610535 
	C104.635765,151.065491 104.955124,151.678482 105.723373,152.169525 
	C106.101852,152.120560 106.050621,152.095032 106.039566,152.068634 
M96.637718,152.572937 
	C96.956627,154.648178 97.190025,156.746567 97.735580,158.760406 
	C97.786400,158.947983 100.586494,158.918381 100.782951,158.442139 
	C101.429520,156.874802 102.060997,154.826080 101.518112,153.416916 
	C101.178673,152.535828 98.716324,152.472595 96.637718,152.572937 
z"/>
<path fill="#168873" opacity="1.000000" stroke="none" 
	d="
M149.002823,161.639877 
	C145.810089,161.069656 142.617371,160.499420 139.316727,159.909912 
	C138.276611,160.572235 136.736328,161.553070 135.196045,162.533890 
	C134.897858,162.205643 134.599670,161.877396 134.301498,161.549149 
	C135.589905,157.859756 136.774475,154.128098 138.245560,150.513046 
	C138.579773,149.691757 139.973602,148.716309 140.760452,148.810272 
	C141.782410,148.932312 143.101349,149.846436 143.564819,150.780624 
	C145.286240,154.250290 146.709213,157.868042 148.633057,161.420044 
	C149.021866,161.409897 149.002823,161.639877 149.002823,161.639877 
z"/>
<path fill="#128571" opacity="1.000000" stroke="none" 
	d="
M83.641876,162.027451 
	C81.918472,162.028702 80.637177,162.028702 79.085678,162.028702 
	C79.085678,157.499344 79.085678,153.308640 79.085678,149.139053 
	C87.001999,148.074539 90.337120,149.562500 90.988213,154.350510 
	C91.556595,158.530365 89.356613,160.976181 83.641876,162.027451 
M84.300957,151.386719 
	C79.662491,153.082977 83.101173,156.348282 82.910934,159.255890 
	C84.643242,158.742218 86.872284,157.870682 86.931541,156.870605 
	C87.032631,155.164429 85.771790,153.377594 84.300957,151.386719 
z"/>
<path fill="#148671" opacity="1.000000" stroke="none" 
	d="
M149.351715,161.821869 
	C149.002823,161.639877 149.021866,161.409897 149.028015,161.294800 
	C150.291107,159.241470 151.548050,157.303268 152.941589,155.154419 
	C151.771378,153.318420 150.544998,151.394302 149.318619,149.470184 
	C149.492645,149.111969 149.666656,148.753738 149.840683,148.395523 
	C151.727966,149.294968 153.615250,150.194397 155.272888,150.984390 
	C156.789246,150.156448 158.523636,149.209457 160.258026,148.262466 
	C160.504623,148.622391 160.751221,148.982315 160.997833,149.342224 
	C159.832306,151.094406 158.666779,152.846573 157.243896,154.985657 
	C158.597778,156.992081 160.052444,159.147873 161.507126,161.303665 
	C161.274857,161.666595 161.042587,162.029526 160.810318,162.392456 
	C158.873367,161.317535 156.936401,160.242615 155.082275,159.213669 
	C153.523972,160.021591 151.612289,161.012726 149.351715,161.821869 
z"/>
<path fill="#158772" opacity="1.000000" stroke="none" 
	d="
M73.785027,161.078522 
	C73.359077,160.752853 72.933128,160.427185 72.282822,159.695450 
	C72.000305,158.591125 71.942139,157.892868 71.883972,157.194611 
	C71.231819,157.863052 70.579666,158.531509 69.927513,159.199951 
	C68.406418,160.295151 66.885323,161.390366 65.364227,162.485565 
	C65.065331,162.142136 64.766434,161.798691 64.467529,161.455261 
	C65.649597,158.045929 66.720024,154.592484 68.045357,151.239777 
	C69.353203,147.931351 71.264114,147.112762 73.485809,150.991516 
	C73.201622,152.711105 73.095009,153.849747 72.651779,154.991333 
	C71.538170,155.099777 70.761169,155.205276 69.984169,155.310776 
	C70.069054,155.585968 70.153931,155.861160 70.238808,156.136353 
	C71.161339,155.760895 72.083878,155.385422 73.338562,155.007767 
	C74.113594,155.003357 74.556465,155.001144 74.999336,154.998932 
	C75.698669,156.746521 76.397995,158.494095 76.689102,160.612183 
	C75.448929,161.014648 74.616974,161.046585 73.785027,161.078522 
z"/>
<path fill="#037E67" opacity="1.000000" stroke="none" 
	d="
M126.897095,155.927216 
	C126.896416,153.345383 126.896416,151.242767 126.896416,149.063080 
	C130.394974,149.063080 133.402359,149.063080 136.409744,149.063080 
	C136.507034,149.504364 136.604324,149.945648 136.701614,150.386917 
	C134.797729,150.901367 132.893860,151.415802 130.755478,151.993607 
	C128.567520,154.678680 132.525360,159.867661 126.897766,163.038452 
	C126.897766,159.971634 126.897766,158.189026 126.897095,155.927216 
z"/>
<path fill="#E6F4F2" opacity="1.000000" stroke="none" 
	d="
M140.714661,169.578384 
	C142.067688,169.853302 143.116623,170.295242 144.203949,170.432037 
	C145.434128,170.586823 146.698761,170.467743 147.948410,170.467743 
	C148.030426,171.132858 148.112457,171.797989 148.194473,172.463104 
	C144.714035,173.319473 141.233597,174.175827 137.753159,175.032181 
	C137.490051,174.698776 137.226959,174.365372 136.963852,174.031952 
	C138.118408,172.558197 139.272980,171.084442 140.714661,169.578384 
z"/>
<path fill="#E6F4F2" opacity="1.000000" stroke="none" 
	d="
M156.784760,173.788467 
	C154.038956,173.578568 151.648163,173.290115 149.257355,173.001648 
	C149.185837,172.527740 149.114304,172.053848 149.042786,171.579941 
	C151.756119,170.594910 154.469452,169.609894 157.808044,168.397888 
	C157.584351,170.175980 157.362061,171.942932 156.784760,173.788467 
z"/>
<path fill="#11846F" opacity="1.000000" stroke="none" 
	d="
M75.007477,154.650223 
	C74.556465,155.001144 74.113594,155.003357 73.334961,155.002350 
	C72.999207,154.999146 72.988403,154.988403 72.988403,154.988403 
	C73.095009,153.849747 73.201622,152.711105 73.533470,151.315125 
	C74.177681,152.139023 74.596657,153.220276 75.007477,154.650223 
z"/>
<path fill="#11846F" opacity="1.000000" stroke="none" 
	d="
M70.058380,159.484558 
	C70.579666,158.531509 71.231819,157.863052 71.883972,157.194611 
	C71.942139,157.892868 72.000305,158.591125 72.028366,159.603058 
	C71.395256,159.867538 70.792244,159.818344 70.058380,159.484558 
z"/>
<path fill="#11846F" opacity="1.000000" stroke="none" 
	d="
M73.894867,161.383057 
	C74.616974,161.046585 75.448929,161.014648 76.697098,160.973236 
	C76.077118,161.205032 75.040909,161.446304 73.894867,161.383057 
z"/>
<path fill="#F0FAF9" opacity="1.000000" stroke="none" 
	d="
M96.922150,152.307648 
	C98.716324,152.472595 101.178673,152.535828 101.518112,153.416916 
	C102.060997,154.826080 101.429520,156.874802 100.782951,158.442139 
	C100.586494,158.918381 97.786400,158.947983 97.735580,158.760406 
	C97.190025,156.746567 96.956627,154.648178 96.922150,152.307648 
z"/>
<path fill="#E6F4F2" opacity="1.000000" stroke="none" 
	d="
M84.692009,151.505676 
	C85.771790,153.377594 87.032631,155.164429 86.931541,156.870605 
	C86.872284,157.870682 84.643242,158.742218 82.910934,159.255890 
	C83.101173,156.348282 79.662491,153.082977 84.692009,151.505676 
z"/>
<path fill="#11846F" opacity="1.000000" stroke="none" 
	d="
M73.002808,155.004547 
	C72.083878,155.385422 71.161339,155.760895 70.238808,156.136353 
	C70.153931,155.861160 70.069054,155.585968 69.984169,155.310776 
	C70.761169,155.205276 71.538170,155.099777 72.651787,154.991333 
	C72.988403,154.988403 72.999207,154.999146 73.002808,155.004547 
z"/>
</svg>