<?xml version="1.0" encoding="UTF-8"?>
<svg version="1.1" xmlns="http://www.w3.org/2000/svg" 
     viewBox="20 230 685 255" 
     width="100%" height="80" 
     preserveAspectRatio="xMidYMid meet">

<path d="M0 0 C11.13772413 -0.40006193 21.26766054 2.03687525 30.59375 8.15234375 C31.43550781 8.69890625 32.27726562 9.24546875 33.14453125 9.80859375 C35.30922116 11.23600981 37.45755066 12.68275981 39.59375 14.15234375 C40.04105469 13.765625 40.48835938 13.37890625 40.94921875 12.98046875 C41.85607422 12.19929687 41.85607422 12.19929687 42.78125 11.40234375 C43.37292969 10.891875 43.96460938 10.38140625 44.57421875 9.85546875 C46.88025436 7.91072692 49.23192511 6.0287504 51.59375 4.15234375 C51.57803955 4.89919434 51.5623291 5.64604492 51.54614258 6.41552734 C51.48393923 9.78605636 51.4448058 13.15646487 51.40625 16.52734375 C51.38111328 17.70296875 51.35597656 18.87859375 51.33007812 20.08984375 C51.32041016 21.21132812 51.31074219 22.3328125 51.30078125 23.48828125 C51.2850708 24.5251709 51.26936035 25.56206055 51.25317383 26.63037109 C51.36556396 27.46262207 51.4779541 28.29487305 51.59375 29.15234375 C52.58375 29.81234375 53.57375 30.47234375 54.59375 31.15234375 C55.521875 30.84296875 56.45 30.53359375 57.40625 30.21484375 C60.97319259 29.02586289 62.98585658 29.29332151 66.59375 30.15234375 C66.325625 29.59546875 66.0575 29.03859375 65.78125 28.46484375 C65.719375 27.70171875 65.6575 26.93859375 65.59375 26.15234375 C67.71875 23.77734375 67.71875 23.77734375 70.59375 21.15234375 C71.50476741 20.06067133 72.40105135 18.95651368 73.28125 17.83984375 C74.4259375 16.50953125 74.4259375 16.50953125 75.59375 15.15234375 C76.25375 15.15234375 76.91375 15.15234375 77.59375 15.15234375 C77.92375 14.16234375 78.25375 13.17234375 78.59375 12.15234375 C90.84717597 2.41483034 104.60912205 -1.79087388 120.19970703 -0.20507812 C131.77489156 1.52305467 142.131385 7.13874053 150.59375 15.15234375 C150.59375 15.81234375 150.59375 16.47234375 150.59375 17.15234375 C151.58375 17.48234375 152.57375 17.81234375 153.59375 18.15234375 C162.89686475 30.37325358 166.71021345 42.86538272 165.59375 58.15234375 C163.30820518 73.80081848 157.38425205 83.9436405 145.296875 94.078125 C132.01707667 103.45637674 117.1398408 105.75930485 101.26953125 103.7265625 C91.93796931 101.73826891 84.14793667 97.05548017 77.59375 90.15234375 C73.72259805 91.44272773 72.52824387 93.50535559 70.09375 96.65625 C68.59375 98.15234375 68.59375 98.15234375 65.59375 98.15234375 C65.09875 89.24234375 65.09875 89.24234375 64.59375 80.15234375 C63.60375 80.15234375 62.61375 80.15234375 61.59375 80.15234375 C61.26375 79.49234375 60.93375 78.83234375 60.59375 78.15234375 C52.55779243 79.15683845 47.18579805 80.84025064 42.1328125 87.2578125 C35.07109139 95.95054026 24.58781702 102.16690433 13.48828125 103.90625 C3.2831707 104.77389098 -6.82127657 105.24592615 -16.40625 101.15234375 C-17.6128125 100.67667969 -17.6128125 100.67667969 -18.84375 100.19140625 C-31.38901627 94.6636483 -39.96241171 84.55582299 -45.71875 72.375 C-48.47282427 65.09774125 -48.80915899 58.06071663 -48.90625 50.33984375 C-48.92486084 49.36112305 -48.94347168 48.38240234 -48.96264648 47.37402344 C-48.90599299 40.91662487 -47.64079039 36.67804989 -44.40625 31.15234375 C-43.931875 29.97671875 -43.4575 28.80109375 -42.96875 27.58984375 C-41.160425 23.61152875 -39.12643392 20.57001072 -36.40625 17.15234375 C-35.74625 17.15234375 -35.08625 17.15234375 -34.40625 17.15234375 C-34.07625 16.16234375 -33.74625 15.17234375 -33.40625 14.15234375 C-24.02868646 5.59800144 -12.5979083 0.79759484 0 0 Z " fill="#ECD6ED" transform="translate(306.40625,230.84765625)"/>
<path d="M0 0 C4.28446203 2.63249847 8.34310851 5.53703457 12 9 C12 9.66 12 10.32 12 11 C13.485 11.495 13.485 11.495 15 12 C24.30311475 24.22090983 28.11646345 36.71303897 27 52 C24.71445518 67.64847473 18.79050205 77.79129675 6.703125 87.92578125 C-6.57667333 97.30403299 -21.4539092 99.6069611 -37.32421875 97.57421875 C-46.65578069 95.58592516 -54.44581333 90.90313642 -61 84 C-64.29696105 85.09898702 -65.04670589 85.94597387 -67.1875 88.5625 C-67.71730469 89.20316406 -68.24710937 89.84382813 -68.79296875 90.50390625 C-69.39044922 91.24447266 -69.39044922 91.24447266 -70 92 C-70.99 91.67 -71.98 91.34 -73 91 C-73.52882543 72.95920906 -73.52882543 72.95920906 -70.140625 68.6171875 C-67.8125 67.25 -67.8125 67.25 -65.359375 66.1484375 C-60.16078483 63.61799791 -57.49180512 57.98361024 -55 53 C-47.41 53 -39.82 53 -32 53 C-33.98 55.31 -35.96 57.62 -38 60 C-39.34192868 61.65975389 -40.67909475 63.32346641 -42 65 C-38.85399942 68.77520069 -35.78039541 70.28426612 -31 71 C-24.07943092 71.5967813 -17.14754874 71.55141755 -11 68 C-4.68026009 62.5546199 -0.66597615 56.67344242 0.30859375 48.37109375 C0.6187326 41.61382601 -0.92552093 36.92670663 -4 31 C-4.33 30.01 -4.66 29.02 -5 28 C-6.71519747 26.97348627 -6.71519747 26.97348627 -9 26 C-10.19236674 25.32097566 -11.37953458 24.63277355 -12.5625 23.9375 C-19.11880727 20.24212681 -26.32308383 19.71367328 -33.61328125 21.71875 C-38.37571243 23.70376333 -41.51736593 26.15077287 -45 30 C-46.75903537 31.55486162 -48.55141677 33.06340318 -50.3515625 34.5703125 C-51.9783852 35.98125352 -53.49610471 37.45964664 -55 39 C-55.79275148 37.5839401 -56.58415312 36.16712447 -57.375 34.75 C-57.81585938 33.96109375 -58.25671875 33.1721875 -58.7109375 32.359375 C-59.53233503 30.85596862 -60.30898319 29.32660533 -61.0234375 27.76953125 C-62.45723323 25.1714934 -64.23705765 24.94191216 -67 24 C-69.00751815 23.01517978 -71.00934459 22.01847486 -73 21 C-70.67126065 16.4718957 -67.8954154 14.13326891 -64 11 C-63.67 10.34 -63.34 9.68 -63 9 C-62.34 9 -61.68 9 -61 9 C-60.67 8.01 -60.34 7.02 -60 6 C-42.50008011 -7.90678044 -19.84416212 -10.99430595 0 0 Z " fill="#582265" transform="translate(445,237)"/>
<path d="M0 0 C15.21541818 -0.54653083 27.0355133 4.7006442 38.59375 14.15234375 C39.58375 15.14234375 39.58375 15.14234375 40.59375 16.15234375 C40.92375 16.15234375 41.25375 16.15234375 41.59375 16.15234375 C41.59375 19.78234375 41.59375 23.41234375 41.59375 27.15234375 C40.93375 27.15234375 40.27375 27.15234375 39.59375 27.15234375 C39.59375 27.81234375 39.59375 28.47234375 39.59375 29.15234375 C38.93375 29.15234375 38.27375 29.15234375 37.59375 29.15234375 C37.59375 30.80234375 37.59375 32.45234375 37.59375 34.15234375 C36.93375 34.15234375 36.27375 34.15234375 35.59375 34.15234375 C35.635 35.03921875 35.67625 35.92609375 35.71875 36.83984375 C35.59375 40.15234375 35.59375 40.15234375 33.59375 45.15234375 C26.00375 45.15234375 18.41375 45.15234375 10.59375 45.15234375 C16.59375 38.15234375 16.59375 38.15234375 19.59375 35.15234375 C19.92375 34.16234375 20.25375 33.17234375 20.59375 32.15234375 C19.8925 31.88421875 19.19125 31.61609375 18.46875 31.33984375 C15.59375 30.15234375 15.59375 30.15234375 13.09375 28.52734375 C6.84679375 26.07318236 0.15766811 26.05537853 -6.26171875 28.03125 C-13.32046402 31.2669532 -18.16001827 35.8305998 -21.28125 42.96484375 C-23.74896569 50.63397217 -22.88478929 57.64486344 -19.6953125 64.953125 C-17.78074438 68.21949424 -15.4486161 69.93971386 -12.40625 72.15234375 C-12.40625 72.81234375 -12.40625 73.47234375 -12.40625 74.15234375 C-2.79980875 77.65317266 6.42448798 79.00578986 16.03515625 74.76171875 C21.32280223 71.43574906 25.39821397 66.72484973 29.59375 62.15234375 C30.58731933 61.14595417 31.5838005 60.14229425 32.59375 59.15234375 C32.94566406 59.80460937 33.29757812 60.456875 33.66015625 61.12890625 C37.77765129 68.41784002 41.9521156 73.54842884 49.59375 77.15234375 C44.15451033 89.06058205 32.34308547 97.3450993 20.59375 102.15234375 C9.37046648 105.97887924 -5.51860562 105.8022752 -16.40625 101.15234375 C-17.6128125 100.67667969 -17.6128125 100.67667969 -18.84375 100.19140625 C-31.38901627 94.6636483 -39.96241171 84.55582299 -45.71875 72.375 C-48.47282427 65.09774125 -48.80915899 58.06071663 -48.90625 50.33984375 C-48.92486084 49.36112305 -48.94347168 48.38240234 -48.96264648 47.37402344 C-48.90599299 40.91662487 -47.64079039 36.67804989 -44.40625 31.15234375 C-43.931875 29.97671875 -43.4575 28.80109375 -42.96875 27.58984375 C-41.160425 23.61152875 -39.12643392 20.57001072 -36.40625 17.15234375 C-35.74625 17.15234375 -35.08625 17.15234375 -34.40625 17.15234375 C-34.07625 16.16234375 -33.74625 15.17234375 -33.40625 14.15234375 C-24.02868646 5.59800144 -12.5979083 0.79759484 0 0 Z " fill="#BD0B28" transform="translate(306.40625,230.84765625)"/>
<path d="M0 0 C7.59 0 15.18 0 23 0 C25.75 8.875 25.75 8.875 26.58886719 11.60498047 C28.16138849 16.62945714 29.97009304 21.48940159 31.96044922 26.36181641 C33.89028588 31.25937745 35.52795007 36.2557822 37.1875 41.25 C37.54263672 42.29929687 37.89777344 43.34859375 38.26367188 44.4296875 C38.60333984 45.44804687 38.94300781 46.46640625 39.29296875 47.515625 C39.5974292 48.42602539 39.90188965 49.33642578 40.21557617 50.27441406 C41.04811152 53.16716993 41.55956681 56.02441044 42 59 C42.66 59 43.32 59 44 59 C44.17015625 58.24976563 44.3403125 57.49953125 44.515625 56.7265625 C45.94611956 50.6850057 47.67936104 45.07983959 50.09765625 39.3671875 C50.97968522 37.05329331 51.52558122 34.86417303 52 32.4375 C52.79293703 28.45890366 54.20224047 25.11555089 55.92578125 21.45703125 C57.55649301 17.72714872 58.74803352 13.87103544 59.97265625 9.9921875 C61.13880748 6.59571661 62.58540058 3.30073199 64 0 C71.26 0 78.52 0 86 0 C86 27.72 86 55.44 86 84 C80.72 84 75.44 84 70 84 C69.67 65.52 69.34 47.04 69 28 C65.535 38.395 65.535 38.395 62 49 C60.02 53.95 60.02 53.95 58 59 C56.87915533 62.73572469 56.87915533 62.73572469 55.7890625 66.48046875 C54.69574964 69.9714925 53.30135784 73.31270739 51.8671875 76.67578125 C50.78400782 79.39079513 50.78400782 79.39079513 50 84 C46.04 84 42.08 84 38 84 C31.90018673 72.45392488 28.24965425 59.90595088 24.19140625 47.53515625 C21.91836815 40.6389898 19.44578212 33.84818995 17 27 C16.67 45.81 16.34 64.62 16 84 C10.72 84 5.44 84 0 84 C0 56.28 0 28.56 0 0 Z " fill="#D6091D" transform="translate(361,367)"/>
<path d="M0 0 C1.734375 1.60546875 1.734375 1.60546875 3 3 C3.33 1.35 3.66 -0.3 4 -2 C6.31243792 -2.02685412 8.6249627 -2.04632841 10.9375 -2.0625 C12.22527344 -2.07410156 13.51304687 -2.08570313 14.83984375 -2.09765625 C18 -2 18 -2 19 -1 C19.0940067 0.96369153 19.11743381 2.93079199 19.11352539 4.89672852 C19.11341209 6.78857628 19.11341209 6.78857628 19.11329651 8.71864319 C19.1081891 10.10539794 19.10297309 11.49215229 19.09765625 12.87890625 C19.09579201 14.28995209 19.09436814 15.70099857 19.09336853 17.11204529 C19.08954379 20.83240535 19.0797139 24.5527266 19.06866455 28.27307129 C19.05844948 32.06680781 19.05387071 35.86055058 19.04882812 39.65429688 C19.03809158 47.10288436 19.02049515 54.5514318 19 62 C14.05 62 9.1 62 4 62 C3.505 59.03 3.505 59.03 3 56 C2.505 56.598125 2.01 57.19625 1.5 57.8125 C-4.31122599 62.89732274 -10.51439447 63.49612793 -17.96875 63.2890625 C-26.94322401 62.43324926 -34.14897071 59.36876406 -40.1875 52.5625 C-47.84678866 43.14337478 -48.78900385 33.91141289 -48 22 C-46.81294858 14.66186394 -42.84167738 9.47989849 -38 4 C-37.53078125 3.46503906 -37.0615625 2.93007813 -36.578125 2.37890625 C-27.6084049 -5.4584977 -10.12351591 -5.5405729 0 0 Z " fill="#DB0B1D" transform="translate(505,389)"/>
<path d="M0 0 C1.175625 0.0825 2.35125 0.165 3.5625 0.25 C4.2225 1.24 4.8825 2.23 5.5625 3.25 C4.5725 3.25 3.5825 3.25 2.5625 3.25 C2.5625 8.86 2.5625 14.47 2.5625 20.25 C6.1925 20.25 9.8225 20.25 13.5625 20.25 C13.5625 19.59 13.5625 18.93 13.5625 18.25 C14.2225 18.25 14.8825 18.25 15.5625 18.25 C15.5625 13.96 15.5625 9.67 15.5625 5.25 C15.8925 5.25 16.2225 5.25 16.5625 5.25 C16.61632106 7.87527189 16.65608313 10.49944713 16.6875 13.125 C16.70425781 13.87136719 16.72101562 14.61773437 16.73828125 15.38671875 C16.7558959 17.34194461 16.66570189 19.29742021 16.5625 21.25 C15.9025 21.91 15.2425 22.57 14.5625 23.25 C15.5525 23.58 16.5425 23.91 17.5625 24.25 C17.5625 16.99 17.5625 9.73 17.5625 2.25 C23.1725 2.25 28.7825 2.25 34.5625 2.25 C34.5625 7.86 34.5625 13.47 34.5625 19.25 C29.2825 19.25 24.0025 19.25 18.5625 19.25 C18.5625 19.91 18.5625 20.57 18.5625 21.25 C24.5025 21.25 30.4425 21.25 36.5625 21.25 C36.0675 23.725 36.0675 23.725 35.5625 26.25 C34.9025 26.25 34.2425 26.25 33.5625 26.25 C33.5625 46.71 33.5625 67.17 33.5625 88.25 C26.6325 88.25 19.7025 88.25 12.5625 88.25 C12.2325 71.09 11.9025 53.93 11.5625 36.25 C8.2625 36.25 4.9625 36.25 1.5625 36.25 C1.5625 53.08 1.5625 69.91 1.5625 87.25 C-3.3875 87.25 -8.3375 87.25 -13.4375 87.25 C-13.7675 71.74 -14.0975 56.23 -14.4375 40.25 C-16.4175 40.25 -18.3975 40.25 -20.4375 40.25 C-20.7675 39.59 -21.0975 38.93 -21.4375 38.25 C-22.4275 37.92 -23.4175 37.59 -24.4375 37.25 C-24.49136629 35.12527424 -24.53023071 33.00016348 -24.5625 30.875 C-24.58570313 29.69164062 -24.60890625 28.50828125 -24.6328125 27.2890625 C-24.4375 24.25 -24.4375 24.25 -22.4375 22.25 C-19.7975 22.25 -17.1575 22.25 -14.4375 22.25 C-14.4375 15.65 -14.4375 9.05 -14.4375 2.25 C-10.58007812 1.90820312 -10.58007812 1.90820312 -6.72265625 1.56640625 C-3.58657193 1.13217919 -3.54019224 0.25746853 0 0 Z " fill="#F5F5EC" transform="translate(660.4375,363.75)"/>
<path d="M0 0 C3.125 1.8125 3.125 1.8125 6 4 C6.57621094 4.42023438 7.15242188 4.84046875 7.74609375 5.2734375 C12.84295125 9.24131366 15.51020001 12.99518825 18 19 C18.495 26.92 18.495 26.92 19 35 C2.17 35 -14.66 35 -32 35 C-28.96747035 43.35263911 -28.96747035 43.35263911 -23 48 C-15.90690532 49.59483104 -10.47367587 49.29362456 -4 46 C-3.43667969 45.30777344 -2.87335938 44.61554688 -2.29296875 43.90234375 C1.01205052 41.16036013 4.16754226 41.56246661 8.25 41.75 C8.99507813 41.76804687 9.74015625 41.78609375 10.5078125 41.8046875 C12.33909701 41.85164351 14.16971649 41.92338348 16 42 C14.23981455 48.11708013 11.2836569 51.46379189 7 56 C6.360625 56.763125 5.72125 57.52625 5.0625 58.3125 C-2.42954364 64.44235389 -12.61237262 63.93821784 -21.73535156 63.27539062 C-28.84120464 62.41128947 -34.1634467 59.42597279 -38.65625 53.91796875 C-46.35571427 43.60899433 -48.01036669 34.52355753 -47 22 C-46.12830794 18.62631614 -44.86685522 15.92934195 -43 13 C-42.56816406 12.3090625 -42.13632812 11.618125 -41.69140625 10.90625 C-40.375 8.9375 -40.375 8.9375 -38 6 C-37.34 6 -36.68 6 -36 6 C-36 5.34 -36 4.68 -36 4 C-34.23084525 3.01780373 -32.45961431 2.03934641 -30.6875 1.0625 C-29.70136719 0.51722656 -28.71523438 -0.02804687 -27.69921875 -0.58984375 C-19.22793869 -5.01550526 -8.49293727 -4.03025333 0 0 Z " fill="#352976" transform="translate(308,390)"/>
<path d="M0 0 C2.76162584 1.19567599 5.28693125 2.52675535 7.859375 4.0859375 C8.59929687 4.52035156 9.33921875 4.95476562 10.1015625 5.40234375 C15.6920853 9.10474659 19.08304536 14.02412435 21.859375 20.0859375 C22.859375 25.0859375 22.859375 25.0859375 22.859375 37.0859375 C6.359375 37.0859375 -10.140625 37.0859375 -27.140625 37.0859375 C-25.655625 40.5509375 -25.655625 40.5509375 -24.140625 44.0859375 C-24.140625 45.0759375 -24.140625 46.0659375 -24.140625 47.0859375 C-23.33625 47.3953125 -22.531875 47.7046875 -21.703125 48.0234375 C-19.140625 49.0859375 -19.140625 49.0859375 -18.140625 50.0859375 C-16.08107152 50.21263392 -14.01653882 50.26177979 -11.953125 50.2734375 C-10.82519531 50.28761719 -9.69726562 50.30179687 -8.53515625 50.31640625 C-3.94853033 50.00500127 -0.40759988 49.52326195 2.71875 45.9765625 C5.89430035 43.17187935 9.09860672 43.65169726 13.109375 43.8359375 C13.85445312 43.85398437 14.59953125 43.87203125 15.3671875 43.890625 C17.19847201 43.93758101 19.02909149 44.00932098 20.859375 44.0859375 C17.20771527 53.04076135 12.2905563 59.22150205 3.65234375 63.77734375 C-0.66028959 65.51225122 -4.8492219 65.62266222 -9.453125 65.5859375 C-10.29399658 65.57949219 -11.13486816 65.57304687 -12.0012207 65.56640625 C-21.05522675 65.29998307 -26.74847794 62.4728535 -33.453125 56.4609375 C-41.4624818 47.68801119 -43.08330066 38.80228757 -42.5625 27.28125 C-41.93957976 19.37576223 -38.60433294 13.69342723 -33.140625 8.0859375 C-32.480625 8.0859375 -31.820625 8.0859375 -31.140625 8.0859375 C-31.140625 7.4259375 -31.140625 6.7659375 -31.140625 6.0859375 C-26.2578125 3.25390625 -26.2578125 3.25390625 -24.140625 2.0859375 C-23.21894531 1.55613281 -22.29726562 1.02632813 -21.34765625 0.48046875 C-14.74199519 -2.39190762 -6.8490269 -1.9933735 0 0 Z " fill="#332773" transform="translate(232.140625,387.9140625)"/>
<path d="M0 0 C4.60330589 3.66704029 8.06483036 8.45614288 8.8125 14.4375 C8.8125 16.7475 8.8125 19.0575 8.8125 21.4375 C4.1925 21.4375 -0.4275 21.4375 -5.1875 21.4375 C-7.1875 16.4375 -7.1875 16.4375 -7.1875 13.4375 C-14.34761912 11.97502339 -14.34761912 11.97502339 -20.9375 14.1875 C-22.80289879 19.03753684 -22.00112961 23.38769014 -21.1875 28.4375 C-19.929375 28.685 -18.67125 28.9325 -17.375 29.1875 C-6.42068138 31.64099092 3.03740656 35.14594329 9.8125 44.4375 C12.20989211 51.13210439 11.93818102 61.39898956 9.5 68.0625 C8.943125 69.17625 8.38625 70.29 7.8125 71.4375 C7.420625 72.30375 7.02875 73.17 6.625 74.0625 C3.22784089 78.51394987 -1.52933382 82.56853207 -7.1875 83.4375 C-9.82688612 83.5831986 -12.4229028 83.66812681 -15.0625 83.6875 C-15.75730469 83.708125 -16.45210937 83.72875 -17.16796875 83.75 C-22.98984342 83.79385593 -26.95301548 82.55049799 -31.19921875 78.53515625 C-31.75222656 77.86355469 -32.30523437 77.19195312 -32.875 76.5 C-33.71611328 75.49646484 -33.71611328 75.49646484 -34.57421875 74.47265625 C-35.37279297 73.46525391 -35.37279297 73.46525391 -36.1875 72.4375 C-36.73664062 71.82261719 -37.28578125 71.20773437 -37.8515625 70.57421875 C-40.46460076 66.39488563 -39.92657186 61.23857777 -40.1875 56.4375 C-35.2375 56.4375 -30.2875 56.4375 -25.1875 56.4375 C-24.5275 58.7475 -23.8675 61.0575 -23.1875 63.4375 C-21.4176177 66.6241503 -21.4176177 66.6241503 -18.1875 68.4375 C-14.43677611 68.5484369 -10.87618962 68.08996524 -7.1875 67.4375 C-5.11456462 62.68874366 -4.77906901 59.58373042 -5.1875 54.4375 C-7.1387113 50.42667676 -10.15806817 49.11009434 -14.1875 47.4375 C-15.46625 47.14875 -16.745 46.86 -18.0625 46.5625 C-26.5051242 44.5646271 -31.61311284 39.60773316 -36.1875 32.4375 C-39.02210228 26.76829544 -38.01962184 17.10735809 -36.17578125 11.19140625 C-34.99026748 8.73849638 -33.89580427 6.55964699 -32.1875 4.4375 C-31.1975 4.1075 -30.2075 3.7775 -29.1875 3.4375 C-29.1875 2.7775 -29.1875 2.1175 -29.1875 1.4375 C-21.23223626 -4.08698871 -8.35531803 -5.2359993 0 0 Z " fill="#342876" transform="translate(68.1875,369.5625)"/>
<path d="M0 0 C4.95 0 9.9 0 15 0 C15.33 8.25 15.66 16.5 16 25 C18.64 23.35 21.28 21.7 24 20 C26.92893158 19.51375159 29.11377285 19.27557151 32 19.375 C32.69770508 19.38756836 33.39541016 19.40013672 34.11425781 19.41308594 C39.93959774 19.67725516 43.75023203 21.08840985 48 25 C48.763125 25.639375 49.52625 26.27875 50.3125 26.9375 C56.14328884 34.0640197 56.1458424 41.36874007 56.09765625 50.11328125 C56.0962413 51.08283249 56.09482635 52.05238373 56.09336853 53.05131531 C56.08778513 56.13840867 56.07523564 59.22542867 56.0625 62.3125 C56.05748286 64.40950416 56.05292032 66.50650946 56.04882812 68.60351562 C56.03782112 73.73570521 56.02056788 78.86784018 56 84 C51.05 84 46.1 84 41 84 C40.970271 82.23740845 40.970271 82.23740845 40.93994141 80.43920898 C40.86356404 76.05748968 40.77489723 71.67608859 40.68261719 67.29467773 C40.64445975 65.40248929 40.60958433 63.51023158 40.578125 61.61791992 C40.53218577 58.88956028 40.47424035 56.16167207 40.4140625 53.43359375 C40.40251129 52.59477158 40.39096008 51.7559494 40.37905884 50.89170837 C40.25579263 45.92685412 39.75304053 41.66907566 38 37 C32.943562 34.0179981 26.70346264 34.81732682 21 35 C20.67 35.66 20.34 36.32 20 37 C19.34 37 18.68 37 18 37 C14.46423094 46.78516234 14.45309027 56.42643301 14.3125 66.6875 C14.27925889 68.37177021 14.24476319 70.05601616 14.20898438 71.74023438 C14.12486655 75.82668713 14.05769677 79.91309233 14 84 C9.38 84 4.76 84 0 84 C0 56.28 0 28.56 0 0 Z " fill="#352972" transform="translate(89,368)"/>
<path d="M0 0 C0.96486328 0.6496875 0.96486328 0.6496875 1.94921875 1.3125 C1.16772535 6.82016778 -3.19486143 9.64019541 -7.05078125 13.3125 C3.83921875 13.8075 3.83921875 13.8075 14.94921875 14.3125 C15.27921875 12.6625 15.60921875 11.0125 15.94921875 9.3125 C17.140625 7.29296875 17.140625 7.29296875 18.51171875 5.5 C18.96675781 4.89542969 19.42179687 4.29085938 19.890625 3.66796875 C20.41462891 2.99701172 20.41462891 2.99701172 20.94921875 2.3125 C22.26921875 2.6425 23.58921875 2.9725 24.94921875 3.3125 C24.28921875 4.6325 23.62921875 5.9525 22.94921875 7.3125 C23.60921875 7.3125 24.26921875 7.3125 24.94921875 7.3125 C24.94921875 7.9725 24.94921875 8.6325 24.94921875 9.3125 C23.62921875 9.3125 22.30921875 9.3125 20.94921875 9.3125 C18.34895126 16.11818135 18.34895126 16.11818135 17.94921875 23.3125 C17.28921875 23.3125 16.62921875 23.3125 15.94921875 23.3125 C15.94921875 24.9625 15.94921875 26.6125 15.94921875 28.3125 C14.95921875 28.6425 13.96921875 28.9725 12.94921875 29.3125 C11.26871632 30.97040592 11.26871632 30.97040592 9.63671875 33 C9.01796875 33.72058594 8.39921875 34.44117188 7.76171875 35.18359375 C6.67274567 36.46266774 5.58799464 37.74537998 4.51171875 39.03515625 C-0.1719248 44.23772622 -5.93106089 46.80254852 -12.859375 47.66015625 C-22.08534944 47.95446611 -28.50065483 45.61040627 -35.2890625 39.35546875 C-38.13977911 36.04964883 -39.58492243 32.37880892 -41.05078125 28.3125 C-41.38078125 27.6525 -41.71078125 26.9925 -42.05078125 26.3125 C-42.93909072 17.1219136 -41.26786403 10.69635805 -35.42578125 3.5625 C-25.32716745 -7.04929199 -12.25737824 -7.55376234 0 0 Z " fill="#F8F5F5" transform="translate(325.05078125,261.6875)"/>
<path d="M0 0 C2.31243792 -0.02685412 4.6249627 -0.04632841 6.9375 -0.0625 C8.22527344 -0.07410156 9.51304687 -0.08570313 10.83984375 -0.09765625 C14 0 14 0 15 1 C15.0940067 2.96369153 15.11743381 4.93079199 15.11352539 6.89672852 C15.11344986 8.15796036 15.11337433 9.4191922 15.11329651 10.71864319 C15.1081891 12.10539794 15.10297309 13.49215229 15.09765625 14.87890625 C15.09579201 16.28995209 15.09436814 17.70099857 15.09336853 19.11204529 C15.08954379 22.83240535 15.0797139 26.5527266 15.06866455 30.27307129 C15.05844948 34.06680781 15.05387071 37.86055058 15.04882812 41.65429688 C15.03809158 49.10288436 15.02049515 56.5514318 15 64 C10.05 64 5.1 64 0 64 C-0.495 61.03 -0.495 61.03 -1 58 C-1.33 58.598125 -1.66 59.19625 -2 59.8125 C-5.66331531 63.81925111 -9.91730001 64.78445873 -15.1328125 65.32421875 C-21.85789579 65.55046865 -27.62943783 65.36740477 -33 61 C-40.39145023 53.37705021 -41.30640646 45.67731404 -41.1953125 35.47265625 C-41.1924826 34.48373886 -41.18965271 33.49482147 -41.18673706 32.47593689 C-41.17560142 29.33799805 -41.15050903 26.20035161 -41.125 23.0625 C-41.11496165 20.92643643 -41.1058373 18.79036836 -41.09765625 16.65429688 C-41.07568375 11.4360864 -41.04119964 6.21809266 -41 1 C-36.38 1 -31.76 1 -27 1 C-26.98541748 2.03817871 -26.97083496 3.07635742 -26.95581055 4.14599609 C-26.89731775 8.04150815 -26.82009387 11.93647255 -26.73754883 15.83154297 C-26.70453704 17.50918613 -26.67643324 19.18693402 -26.65356445 20.86474609 C-26.78474683 34.29610669 -26.78474683 34.29610669 -23 47 C-19.39960066 50.07351163 -16.43436805 50.1792338 -11.875 49.9375 C-8.76517652 49.49390656 -7.16336591 49.10618784 -4.5 47.375 C-0.89245335 41.66305114 -0.68127066 35.5657286 -0.5859375 29.00390625 C-0.56657135 28.17036118 -0.5472052 27.3368161 -0.5272522 26.47801208 C-0.46791007 23.83960916 -0.42125427 21.20116152 -0.375 18.5625 C-0.33677836 16.76365381 -0.29772425 14.96482511 -0.2578125 13.16601562 C-0.1622464 8.77748729 -0.0780498 4.38887339 0 0 Z " fill="#D9071F" transform="translate(615,387)"/>
<path d="M0 0 C6.87555463 4.06862717 10.38563712 9.59441135 12.89453125 17.12109375 C13.87783131 26.95409432 11.76495906 33.85098707 5.58203125 41.49609375 C2.29804128 45.04845279 -0.53089254 46.62555922 -5.10546875 48.12109375 C-6.09546875 48.45109375 -7.08546875 48.78109375 -8.10546875 49.12109375 C-15.0908507 49.70791097 -20.82564752 49.31609052 -27.10546875 46.12109375 C-28.42546875 44.47109375 -29.74546875 42.82109375 -31.10546875 41.12109375 C-27.14546875 37.16109375 -23.18546875 33.20109375 -19.10546875 29.12109375 C-23.71079264 27.66794711 -23.71079264 27.66794711 -26.10546875 29.12109375 C-28.98917208 29.19304244 -31.84786539 29.21401083 -34.73046875 29.18359375 C-35.53226562 29.17908203 -36.3340625 29.17457031 -37.16015625 29.16992188 C-39.14195881 29.15812543 -41.12372308 29.1401898 -43.10546875 29.12109375 C-43.10546875 25.16109375 -43.10546875 21.20109375 -43.10546875 17.12109375 C-42.44546875 16.79109375 -41.78546875 16.46109375 -41.10546875 16.12109375 C-40.44546875 15.46109375 -39.78546875 14.80109375 -39.10546875 14.12109375 C-38.30109375 13.87359375 -37.49671875 13.62609375 -36.66796875 13.37109375 C-33.19630004 11.67759682 -32.62094833 9.58504708 -31.10546875 6.12109375 C-30.44546875 5.46109375 -29.78546875 4.80109375 -29.10546875 4.12109375 C-27.78546875 4.12109375 -26.46546875 4.12109375 -25.10546875 4.12109375 C-25.10546875 2.47109375 -25.10546875 0.82109375 -25.10546875 -0.87890625 C-16.97602546 -4.49199216 -7.82080677 -4.07245614 0 0 Z " fill="#FCF6FC" transform="translate(433.10546875,259.87890625)"/>
<path d="M0 0 C4.95 0 9.9 0 15 0 C15 6.6 15 13.2 15 20 C17.97 20 20.94 20 24 20 C25 21 25 21 25.09765625 23.72265625 C25.08605469 24.82480469 25.07445312 25.92695313 25.0625 27.0625 C25.05347656 28.16722656 25.04445313 29.27195312 25.03515625 30.41015625 C25.02355469 31.26480469 25.01195312 32.11945313 25 33 C21.7 33 18.4 33 15 33 C15 49.83 15 66.66 15 84 C10.05 84 5.1 84 0 84 C0 67.17 0 50.34 0 33 C-2.97 33 -5.94 33 -9 33 C-9 29.04 -9 25.08 -9 21 C-6.03 21 -3.06 21 0 21 C0 14.07 0 7.14 0 0 Z " fill="#D90C22" transform="translate(647,367)"/>
<path d="M0 0 C4.29 0 8.58 0 13 0 C13.33 1.65 13.66 3.3 14 5 C14.78375 4.360625 15.5675 3.72125 16.375 3.0625 C20.62129368 0.17379541 24.97495508 0.27162405 30 0 C30 4.29 30 8.58 30 13 C27.81901042 13.61848958 25.63802083 14.23697917 23.45703125 14.85546875 C20.0372705 16.44845746 18.34692811 18.00881711 16 21 C15.25699031 24.29512475 15.27849141 27.52698277 15.29296875 30.89453125 C15.27784744 31.84188644 15.26272614 32.78924164 15.24714661 33.76530457 C15.20427253 36.78127856 15.1954318 39.79625163 15.1875 42.8125 C15.1643555 44.86135473 15.13899026 46.91018566 15.11132812 48.95898438 C15.04847841 53.97274472 15.01614089 58.9858805 15 64 C10.05 64 5.1 64 0 64 C0 42.88 0 21.76 0 0 Z " fill="#D80B1F" transform="translate(536,387)"/>
<path d="M0 0 C0 4.62 0 9.24 0 14 C-2.5390625 14.68359375 -5.078125 15.3671875 -7.6171875 16.05078125 C-10.32113319 16.86669852 -10.32113319 16.86669852 -12 20 C-12.66 20 -13.32 20 -14 20 C-14.33 34.52 -14.66 49.04 -15 64 C-19.95 64 -24.9 64 -30 64 C-30 43.21 -30 22.42 -30 1 C-25.38 1 -20.76 1 -16 1 C-15.67 2.65 -15.34 4.3 -15 6 C-14.071875 5.195625 -13.14375 4.39125 -12.1875 3.5625 C-8.08293214 0.00520785 -5.70383494 0 0 0 Z " fill="#342872" transform="translate(187,388)"/>
<path d="M0 0 C5.2981303 2.97270659 9.24900228 6.03953301 11 12 C11.86077731 19.34663427 11.64094463 25.10474601 7 31 C4.375 32.8125 4.375 32.8125 2 34 C1.34 34.66 0.68 35.32 0 36 C-6.01392949 36.8707036 -11.97387105 36.57098562 -17.2734375 33.44140625 C-21.61492756 29.81694962 -23.63686598 25.50337524 -24.44140625 19.95703125 C-24.62086193 15.29697237 -24.37549614 11.860512 -22.5 7.5625 C-15.90760308 0.80529316 -9.31053545 -2.38392088 0 0 Z " fill="#FAF6F0" transform="translate(496,401)"/>
<path d="M0 0 C0.33 0 0.66 0 1 0 C0.98428955 0.74685059 0.9685791 1.49370117 0.95239258 2.26318359 C0.89018923 5.63371261 0.8510558 9.00412112 0.8125 12.375 C0.78736328 13.550625 0.76222656 14.72625 0.73632812 15.9375 C0.72666016 17.05898437 0.71699219 18.18046875 0.70703125 19.3359375 C0.6913208 20.37282715 0.67561035 21.4097168 0.65942383 22.47802734 C0.77181396 23.31027832 0.8842041 24.1425293 1 25 C1.99 25.66 2.98 26.32 4 27 C6.02045442 26.39816251 8.02111039 25.72693904 10 25 C11.32 25 12.64 25 14 25 C14 25.66 14 26.32 14 27 C14.721875 27.0825 15.44375 27.165 16.1875 27.25 C19.55313254 28.14750201 21.41612816 29.7114278 24 32 C23.67 33.32 23.34 34.64 23 36 C23.99 35.67 24.98 35.34 26 35 C29.35102108 39.6622902 29.20082333 41.60658665 30 48 C18.78 48 7.56 48 -4 48 C-4 41 -4 41 -3 38 C-3.66 37.67 -4.32 37.34 -5 37 C-5.33 40.63 -5.66 44.26 -6 48 C-8.97 48 -11.94 48 -15 48 C-13.125 38.89285714 -13.125 38.89285714 -11 35 C-9.68 35.33 -8.36 35.66 -7 36 C-7 35.34 -7 34.68 -7 34 C-7.66 34 -8.32 34 -9 34 C-8.67 32.68 -8.34 31.36 -8 30 C-11.26954202 30.56371414 -12.82575883 31.49962266 -15 34 C-15 32.68 -15 31.36 -15 30 C-14.34 30 -13.68 30 -13 30 C-13 28.35 -13 26.7 -13 25 C-12.34 25 -11.68 25 -11 25 C-11 24.34 -11 23.68 -11 23 C-10.34 23 -9.68 23 -9 23 C-9.1135629 21.35333797 -9.24117381 19.70763918 -9.375 18.0625 C-9.47941406 16.68771484 -9.47941406 16.68771484 -9.5859375 15.28515625 C-9.79089844 14.15400391 -9.79089844 14.15400391 -10 13 C-10.66 12.67 -11.32 12.34 -12 12 C-10.85373303 9.70746606 -9.65495735 8.75120672 -7.6875 7.125 C-5.5666841 5.34821789 -3.58514447 3.58514447 -1.625 1.625 C-1.08875 1.08875 -0.5525 0.5525 0 0 Z " fill="#9A88BC" transform="translate(357,235)"/>
<path d="M0 0 C4.29 0 8.58 0 13 0 C14 1 14 1 14.12025452 3.51197815 C14.1169236 5.18742958 14.1169236 5.18742958 14.11352539 6.89672852 C14.11344986 8.15796036 14.11337433 9.4191922 14.11329651 10.71864319 C14.1081891 12.10539794 14.10297309 13.49215229 14.09765625 14.87890625 C14.09579201 16.28995209 14.09436814 17.70099857 14.09336853 19.11204529 C14.08954379 22.83240535 14.0797139 26.5527266 14.06866455 30.27307129 C14.05844948 34.06680781 14.05387071 37.86055058 14.04882812 41.65429688 C14.03809158 49.10288436 14.02049515 56.5514318 14 64 C9.38 64 4.76 64 0 64 C0 42.88 0 21.76 0 0 Z " fill="#D01121" transform="translate(679,387)"/>
<path d="M0 0 C5.94 0 11.88 0 18 0 C18.33 0.99 18.66 1.98 19 3 C21.33200643 3.34732011 23.66413409 3.68031032 26 4 C27.15242188 4.16048828 27.15242188 4.16048828 28.328125 4.32421875 C29.10671875 4.42347656 29.8853125 4.52273438 30.6875 4.625 C31.41324219 4.72039062 32.13898438 4.81578125 32.88671875 4.9140625 C35.02368557 5.10080308 35.02368557 5.10080308 37.12890625 4.46484375 C39 4 39 4 41.25 4.9375 C41.8275 5.288125 42.405 5.63875 43 6 C43 6.99 43 7.98 43 9 C41.68 9.33 40.36 9.66 39 10 C41.475 11.485 41.475 11.485 44 13 C43.67 14.98 43.34 16.96 43 19 C40.125 19.625 40.125 19.625 37 20 C36.34 19.34 35.68 18.68 35 18 C35 17.01 35 16.02 35 15 C35.99 15 36.98 15 38 15 C38 15.66 38 16.32 38 17 C38.99 17 39.98 17 41 17 C39.98478853 15.35157312 39.98478853 15.35157312 38 14 C35.35003674 13.7827899 32.94923442 13.71648446 30.3125 13.8125 C29.2596582 13.83280273 29.2596582 13.83280273 28.18554688 13.85351562 C26.45670171 13.88879818 24.72825235 13.94260417 23 14 C23.33 14.66 23.66 15.32 24 16 C28.455 15.505 28.455 15.505 33 15 C32.34 16.32 31.68 17.64 31 19 C27.6875 20.0625 27.6875 20.0625 24 20 C21.0625 17.5625 21.0625 17.5625 19 15 C18.67 16.65 18.34 18.3 18 20 C16.68 20 15.36 20 14 20 C14 17.69 14 15.38 14 13 C13.34 13 12.68 13 12 13 C11.67 15.31 11.34 17.62 11 20 C9.68 20 8.36 20 7 20 C7 16.37 7 12.74 7 9 C6.01 9 5.02 9 4 9 C4 12.63 4 16.26 4 20 C2.68 20 1.36 20 0 20 C0 13.4 0 6.8 0 0 Z " fill="#D4D9D3" transform="translate(351,468)"/>
<path d="M0 0 C0 15.51 0 31.02 0 47 C4.64045375 48.09805807 4.64045375 48.09805807 8 48 C8 48.66 8 49.32 8 50 C10.64 50 13.28 50 16 50 C16.33 48.68 16.66 47.36 17 46 C18.485 46.99 18.485 46.99 20 48 C18.23715389 50.48401043 16.70645068 51.80219381 13.75390625 52.62890625 C8.9076254 53.32966223 4.59484435 53.56910567 0.52148438 50.54248047 C-5.08437564 44.85926103 -4.30619039 35.171475 -4.28666687 27.75428772 C-4.26338879 25.2943027 -4.22585133 22.83479164 -4.1875 20.375 C-4.17242441 18.68620986 -4.1587411 16.9974067 -4.14648438 15.30859375 C-4.11370964 11.20540271 -4.06208718 7.1028479 -4 3 C-8.62 3 -13.24 3 -18 3 C-17.88136786 9.28063713 -17.75709452 15.5611284 -17.62768555 21.84155273 C-17.58448277 23.97628782 -17.54279789 26.11105421 -17.50268555 28.24584961 C-17.44462646 31.32154759 -17.38103616 34.39709016 -17.31640625 37.47265625 C-17.29969376 38.42084732 -17.28298126 39.36903839 -17.26576233 40.34596252 C-17.15561517 45.31843499 -16.82891423 50.09436172 -16 55 C-16.474375 54.505 -16.94875 54.01 -17.4375 53.5 C-18.75923698 51.88457803 -18.75923698 51.88457803 -20 52 C-20 41.11 -20 30.22 -20 19 C-27.84365306 19.68356986 -27.84365306 19.68356986 -35 22 C-35.33 22.99 -35.66 23.98 -36 25 C-36.99 25.66 -37.98 26.32 -39 27 C-39.33761035 30.04440276 -39.48917443 32.8948124 -39.51171875 35.9453125 C-39.52966995 36.8303244 -39.54762115 37.7153363 -39.56611633 38.62716675 C-39.62038985 41.45972904 -39.65416919 44.29212126 -39.6875 47.125 C-39.72065808 49.04299251 -39.75514631 50.96096253 -39.79101562 52.87890625 C-39.87612593 57.58581506 -39.94285537 62.29267194 -40 67 C-45.61 67 -51.22 67 -57 67 C-57 46.54 -57 26.08 -57 5 C-56.67 5 -56.34 5 -56 5 C-56 25.13 -56 45.26 -56 66 C-51.05 66 -46.1 66 -41 66 C-41.02094727 64.72358643 -41.04189453 63.44717285 -41.06347656 62.13208008 C-41.13596431 57.38919323 -41.18183187 52.6463552 -41.21972656 47.90307617 C-41.23982199 45.85156007 -41.26710324 43.80010111 -41.30175781 41.7487793 C-41.35036669 38.79721975 -41.37298952 35.84641852 -41.390625 32.89453125 C-41.41127014 31.97976517 -41.43191528 31.06499908 -41.45318604 30.12251282 C-41.45465552 25.93709062 -41.38642876 23.63084238 -39.15917969 19.99487305 C-34.87474439 16.03646952 -31.84316167 15 -26 15 C-26 10.71 -26 6.42 -26 2 C-30.455 2.495 -30.455 2.495 -35 3 C-34.67 2.34 -34.34 1.68 -34 1 C-31.03 1 -28.06 1 -25 1 C-25 1.99 -25 2.98 -25 4 C-24.01 4.33 -23.02 4.66 -22 5 C-22.66 8.63 -23.32 12.26 -24 16 C-22.68 16 -21.36 16 -20 16 C-20 11.38 -20 6.76 -20 2 C-16.86011997 0.43005998 -13.4541412 0.62168061 -10 0.4375 C-8.89398437 0.37272461 -8.89398437 0.37272461 -7.765625 0.30664062 C-2.43105159 0 -2.43105159 0 0 0 Z " fill="#EBCFD0" transform="translate(592,385)"/>
<path d="M0 0 C5.61 0 11.22 0 17 0 C17 5.61 17 11.22 17 17 C11.72 17 6.44 17 1 17 C1 17.66 1 18.32 1 19 C6.94 19 12.88 19 19 19 C18.67 20.65 18.34 22.3 18 24 C17.34 24 16.68 24 16 24 C16 44.46 16 64.92 16 86 C10.72 86 5.44 86 0 86 C0 57.62 0 29.24 0 0 Z M1 21 C1 42.12 1 63.24 1 85 C5.62 85 10.24 85 15 85 C15.02255425 76.8030903 15.04091696 68.60620455 15.05181217 60.40927219 C15.0570402 56.60348423 15.06413638 52.79771852 15.07543945 48.99194336 C15.0862712 45.32207456 15.09227744 41.65222722 15.09487724 37.98234367 C15.09673097 36.57925008 15.1003506 35.17615771 15.10573006 33.7730732 C15.11294419 31.8143032 15.11340809 29.8555118 15.11352539 27.89672852 C15.115746 26.77976089 15.11796661 25.66279327 15.12025452 24.51197815 C15.28510776 22.06094586 15.28510776 22.06094586 14 21 C9.71 21 5.42 21 1 21 Z " fill="#F9C1C1" transform="translate(678,366)"/>
<path d="M0 0 C3.3 0 6.6 0 10 0 C10.66 2.64 11.32 5.28 12 8 C12 5.36 12 2.72 12 0 C15.63 0 19.26 0 23 0 C23.10767427 3.77159047 23.18716451 7.5401264 23.25 11.3125 C23.30027344 12.9202832 23.30027344 12.9202832 23.3515625 14.56054688 C23.36445313 15.58857422 23.37734375 16.61660156 23.390625 17.67578125 C23.41157227 18.62364502 23.43251953 19.57150879 23.45410156 20.5480957 C23 23 23 23 21.14746094 24.82104492 C18.58310973 26.22887257 16.88277782 26.24023149 14 26 C14.33 25.01 14.66 24.02 15 23 C14.34 22.814375 13.68 22.62875 13 22.4375 C5.47811628 18.83326405 1.18699852 13.56912149 -2 6 C-1.34 5.67 -0.68 5.34 0 5 C0 3.35 0 1.7 0 0 Z " fill="#EAD8EE" transform="translate(341,285)"/>
<path d="M0 0 C1.90845703 0.04060547 1.90845703 0.04060547 3.85546875 0.08203125 C5.31919922 0.13423828 5.31919922 0.13423828 6.8125 0.1875 C6.8125 1.8375 6.8125 3.4875 6.8125 5.1875 C7.96878906 5.15269531 7.96878906 5.15269531 9.1484375 5.1171875 C10.15132813 5.09914063 11.15421875 5.08109375 12.1875 5.0625 C13.18523437 5.03929687 14.18296875 5.01609375 15.2109375 4.9921875 C17.8125 5.1875 17.8125 5.1875 19.8125 7.1875 C20.0078125 9.7890625 20.0078125 9.7890625 19.9375 12.8125 C19.91945313 13.81539063 19.90140625 14.81828125 19.8828125 15.8515625 C19.85960937 16.62242187 19.83640625 17.39328125 19.8125 18.1875 C18.8225 18.1875 17.8325 18.1875 16.8125 18.1875 C16.4825 15.2175 16.1525 12.2475 15.8125 9.1875 C14.4925 9.1875 13.1725 9.1875 11.8125 9.1875 C11.4825 12.4875 11.1525 15.7875 10.8125 19.1875 C9.4925 18.8575 8.1725 18.5275 6.8125 18.1875 C6.4825 18.5175 6.1525 18.8475 5.8125 19.1875 C4.14644172 19.2325286 2.47871616 19.22624921 0.8125 19.1875 C-1.37589268 19.1875 -3.56744218 19.21530065 -5.75 19.375 C-8.1875 19.1875 -8.1875 19.1875 -10 17.875 C-11.1875 16.1875 -11.1875 16.1875 -11.1875 13.1875 C-10.1975 13.1875 -9.2075 13.1875 -8.1875 13.1875 C-8.1875 13.8475 -8.1875 14.5075 -8.1875 15.1875 C-6.8675 15.1875 -5.5475 15.1875 -4.1875 15.1875 C-4.1875 13.8675 -4.1875 12.5475 -4.1875 11.1875 C-4.991875 11.043125 -5.79625 10.89875 -6.625 10.75 C-9.1875 10.1875 -9.1875 10.1875 -10.1875 9.1875 C-10.64625928 3.91176831 -10.64625928 3.91176831 -9.12109375 1.50390625 C-6.14770864 -0.52039836 -3.53946671 -0.09741652 0 0 Z " fill="#DDDDD5" transform="translate(437.1875,468.8125)"/>
<path d="M0 0 C6.8397016 1.57839268 12.12259566 6.12259566 17 11 C17.33 11 17.66 11 18 11 C18 14.63 18 18.26 18 22 C17.34 22 16.68 22 16 22 C16 22.66 16 23.32 16 24 C15.34 24 14.68 24 14 24 C14 25.65 14 27.3 14 29 C13.34 29 12.68 29 12 29 C12.04125 29.886875 12.0825 30.77375 12.125 31.6875 C12 35 12 35 10 40 C2.41 40 -5.18 40 -13 40 C-7 33 -7 33 -4 30 C-3.67 29.01 -3.34 28.02 -3 27 C-5.475 26.01 -5.475 26.01 -8 25 C-6.68 24.67 -5.36 24.34 -4 24 C-4 24.66 -4 25.32 -4 26 C-3.34 26 -2.68 26 -2 26 C-1.95745644 27.99954746 -1.95919217 30.00041636 -2 32 C-2.495 32.495 -2.495 32.495 -3 33 C-0.03 33.33 2.94 33.66 6 34 C6.79594495 30.81622021 7.13580379 28.63001993 7.125 25.4375 C7.12757813 24.67308594 7.13015625 23.90867187 7.1328125 23.12109375 C7.07907384 20.81001505 7.07907384 20.81001505 6 18 C6.804375 17.236875 7.60875 16.47375 8.4375 15.6875 C11.16799024 13.20569102 11.16799024 13.20569102 12 10 C11.34 10 10.68 10 10 10 C10 9.34 10 8.68 10 8 C9.34 8 8.68 8 8 8 C8 7.34 8 6.68 8 6 C7.34 6 6.68 6 6 6 C6 5.34 6 4.68 6 4 C4.02 4 2.04 4 0 4 C0 2.68 0 1.36 0 0 Z " fill="#8B1843" transform="translate(330,236)"/>
<path d="M0 0 C6.93 0 13.86 0 21 0 C19.84396339 6.93621969 18.18611052 11.26823679 12.80859375 15.87890625 C8.52511058 18.920391 8.52511058 18.920391 6 20 C3.91015625 19.58984375 3.91015625 19.58984375 2 19 C1.01 19.33 0.02 19.66 -1 20 C-1.02686553 18.02090602 -1.04633375 16.04171029 -1.0625 14.0625 C-1.07410156 12.96035156 -1.08570313 11.85820312 -1.09765625 10.72265625 C-1 8 -1 8 0 7 C0 4.69 0 2.38 0 0 Z " fill="#C6B6DD" transform="translate(366,285)"/>
<path d="M0 0 C3.75725674 3.35197961 5.76977667 6.0791067 7 11 C-4.22 11 -15.44 11 -27 11 C-23.60813309 4.21626617 -23.60813309 4.21626617 -20.5 1.6875 C-19.9121875 1.19636719 -19.324375 0.70523437 -18.71875 0.19921875 C-13.18209143 -3.66385894 -5.87604836 -2.45725658 0 0 Z " fill="#F2EFF9" transform="translate(232,402)"/>
<path d="M0 0 C1.3125 1.73046875 1.3125 1.73046875 2.3125 6.73046875 C-8.5775 6.73046875 -19.4675 6.73046875 -30.6875 6.73046875 C-28.58479453 0.42235234 -27.12191266 -1.87163983 -21.6875 -5.26953125 C-13.46379714 -7.70618395 -6.31515146 -5.45266549 0 0 Z " fill="#F5F3F5" transform="translate(307.6875,406.26953125)"/>
<path d="M0 0 C0.99 0 1.98 0 3 0 C3 1.65 3 3.3 3 5 C4.0725 4.95875 5.145 4.9175 6.25 4.875 C9.65747485 4.9885825 11.20739631 5.21273364 14 7 C14 6.01 14 5.02 14 4 C14.66 4 15.32 4 16 4 C16 2.68 16 1.36 16 0 C17.32 0 18.64 0 20 0 C20 6.27 20 12.54 20 19 C18.35 19 16.7 19 15 19 C14.67 18.67 14.34 18.34 14 18 C12.39178 18.09081024 10.78707239 18.24779961 9.1875 18.4375 C6.06033573 18.80241282 3.16375851 19 0 19 C0 12.73 0 6.46 0 0 Z " fill="#2D2C31" transform="translate(323,469)"/>
<path d="M0 0 C1.13695312 0.01933594 1.13695312 0.01933594 2.296875 0.0390625 C4.25 0.375 4.25 0.375 6.25 2.375 C6.51991906 5.06339385 6.33737357 7.66641936 6.25 10.375 C5.59 10.375 4.93 10.375 4.25 10.375 C4.25 11.035 4.25 11.695 4.25 12.375 C3.59 12.375 2.93 12.375 2.25 12.375 C2.25 13.695 2.25 15.015 2.25 16.375 C1.54875 16.560625 0.8475 16.74625 0.125 16.9375 C-3.84640051 18.92320026 -6.0573418 21.91433276 -8.75 25.375 C-9.74 25.045 -10.73 24.715 -11.75 24.375 C-11.75627061 21.12324016 -11.69664525 17.87590314 -11.625 14.625 C-11.62757813 13.70460938 -11.63015625 12.78421875 -11.6328125 11.8359375 C-11.43540728 5.02545733 -11.43540728 5.02545733 -7.9921875 1.7578125 C-5.00877663 0.48536979 -3.19570123 -0.12121625 0 0 Z " fill="#BA152D" transform="translate(383.75,303.625)"/>
<path d="M0 0 C2 1 2 1 3.625 4.625 C6.60355722 10.85085645 11.7817243 15.14070359 18 18 C14.5033246 25.65534275 7.66042481 32.00468139 1 37 C0.01 37.33 -0.98 37.66 -2 38 C-2 36.68 -2 35.36 -2 34 C-1.34 34 -0.68 34 0 34 C0 33.34 0 32.68 0 32 C0.66 32 1.32 32 2 32 C2 31.34 2 30.68 2 30 C2.66 30 3.32 30 4 30 C4 29.34 4 28.68 4 28 C4.66 28 5.32 28 6 28 C6 26.02 6 24.04 6 22 C7.98 22 9.96 22 12 22 C9.89956248 17.9096743 7.95736849 16.24607401 4 14 C4 13.34 4 12.68 4 12 C2.68 11.34 1.36 10.68 0 10 C0 9.34 0 8.68 0 8 C-1.48521677 8.75911079 -2.96303425 9.53271234 -4.4375 10.3125 C-5.26121094 10.74175781 -6.08492188 11.17101562 -6.93359375 11.61328125 C-9.30647644 12.90020887 -9.30647644 12.90020887 -10 16 C-17.61942186 21.06268253 -26.27684162 20.4187116 -35 20 C-35.33 19.34 -35.66 18.68 -36 18 C-35.17757813 18.04640625 -34.35515625 18.0928125 -33.5078125 18.140625 C-24.05908422 18.44612661 -17.28448972 17.73634351 -10.0078125 11.390625 C-6.31917076 7.84604304 -2.8443821 4.26657316 0 0 Z " fill="#8F2B49" transform="translate(338,290)"/>
<path d="M0 0 C0.33 0 0.66 0 1 0 C1 7.59 1 15.18 1 23 C-1.31 23.99 -3.62 24.98 -6 26 C-9.32550677 28.25364921 -12.23937818 31.0860103 -15 34 C-15 32.68 -15 31.36 -15 30 C-14.34 30 -13.68 30 -13 30 C-13 28.35 -13 26.7 -13 25 C-12.34 25 -11.68 25 -11 25 C-11 24.34 -11 23.68 -11 23 C-10.34 23 -9.68 23 -9 23 C-9.1135629 21.35333797 -9.24117381 19.70763918 -9.375 18.0625 C-9.47941406 16.68771484 -9.47941406 16.68771484 -9.5859375 15.28515625 C-9.79089844 14.15400391 -9.79089844 14.15400391 -10 13 C-10.66 12.67 -11.32 12.34 -12 12 C-10.85373303 9.70746606 -9.65495735 8.75120672 -7.6875 7.125 C-5.5666841 5.34821789 -3.58514447 3.58514447 -1.625 1.625 C-1.08875 1.08875 -0.5525 0.5525 0 0 Z " fill="#532765" transform="translate(357,235)"/>
<path d="M0 0 C0.33 0 0.66 0 1 0 C1 27.39 1 54.78 1 83 C2.25717605 81.96580854 2.25717605 81.96580854 2.12025452 79.71580505 C2.11803391 78.70542679 2.11581329 77.69504852 2.11352539 76.65405273 C2.11344986 75.5129454 2.11337433 74.37183807 2.11329651 73.19615173 C2.10813522 71.9545076 2.10297394 70.71286346 2.09765625 69.43359375 C2.0962413 68.16983414 2.09482635 66.90607452 2.09336853 65.60401917 C2.08870582 62.23875111 2.0797148 58.8735501 2.06866455 55.50830078 C2.05844846 52.0765033 2.05387049 48.64469891 2.04882812 45.21289062 C2.0377738 38.47524176 2.0210171 31.73762475 2 25 C2.33 25 2.66 25 3 25 C3 43.48 3 61.96 3 81 C6.96 81 10.92 81 15 81 C15 62.52 15 44.04 15 25 C15.33 25 15.66 25 16 25 C16 44.47 16 63.94 16 84 C10.72 84 5.44 84 0 84 C0 56.28 0 28.56 0 0 Z " fill="#A5333C" transform="translate(361,367)"/>
<path d="M0 0 C5.94 0 11.88 0 18 0 C17.67 0.99 17.34 1.98 17 3 C16.01 2.67 15.02 2.34 14 2 C14 5.63 14 9.26 14 13 C13.34 13 12.68 13 12 13 C11.67 15.31 11.34 17.62 11 20 C9.68 20 8.36 20 7 20 C7 16.37 7 12.74 7 9 C6.01 9 5.02 9 4 9 C4 12.63 4 16.26 4 20 C2.68 20 1.36 20 0 20 C0 13.4 0 6.8 0 0 Z " fill="#E6E7E7" transform="translate(351,468)"/>
<path d="M0 0 C0.99 0.66 1.98 1.32 3 2 C3 2.99 3 3.98 3 5 C1.68 4.67 0.36 4.34 -1 4 C-1 4.99 -1 5.98 -1 7 C1.475 7.99 1.475 7.99 4 9 C4.1875 11.375 4.1875 11.375 4 14 C1 16 1 16 -1.6875 15.625 C-2.450625 15.41875 -3.21375 15.2125 -4 15 C-4 14.34 -4 13.68 -4 13 C-5.0828125 13.7734375 -5.0828125 13.7734375 -6.1875 14.5625 C-9.4195366 16.21442982 -10.61608307 16.06351675 -14 15 C-14.33 13.68 -14.66 12.36 -15 11 C-14.01 11 -13.02 11 -12 11 C-12 11.66 -12 12.32 -12 13 C-11.01 13 -10.02 13 -9 13 C-9.804375 12.2575 -10.60875 11.515 -11.4375 10.75 C-13.76988591 8.24695171 -14.63534394 7.2819045 -15 4 C-10.59834814 -0.69509532 -6.09594619 -0.88856165 0 0 Z " fill="#DDDCE1" transform="translate(311,472)"/>
<path d="M0 0 C4.62 0 9.24 0 14 0 C15 1 15 1 15.12025452 3.51197815 C15.1169236 5.18742958 15.1169236 5.18742958 15.11352539 6.89672852 C15.11344986 8.15796036 15.11337433 9.4191922 15.11329651 10.71864319 C15.1081891 12.10539794 15.10297309 13.49215229 15.09765625 14.87890625 C15.09579201 16.28995209 15.09436814 17.70099857 15.09336853 19.11204529 C15.08954379 22.83240535 15.0797139 26.5527266 15.06866455 30.27307129 C15.05844948 34.06680781 15.05387071 37.86055058 15.04882812 41.65429688 C15.03809158 49.10288436 15.02049515 56.5514318 15 64 C10.05 64 5.1 64 0 64 C0 63.67 0 63.34 0 63 C6.435 62.505 6.435 62.505 13 62 C13 42.2 13 22.4 13 2 C12.34 2 11.68 2 11 2 C11 2.99 11 3.98 11 5 C7.7 4.67 4.4 4.34 1 4 C1 15.55 1 27.1 1 39 C0.01 39.495 0.01 39.495 -1 40 C-0.67 26.8 -0.34 13.6 0 0 Z " fill="#CF3648" transform="translate(615,387)"/>
<path d="M0 0 C2.31243792 -0.02685412 4.6249627 -0.04632841 6.9375 -0.0625 C8.22527344 -0.07410156 9.51304687 -0.08570313 10.83984375 -0.09765625 C14 0 14 0 15 1 C15.0940067 2.96369153 15.11743381 4.93079199 15.11352539 6.89672852 C15.11344986 8.15796036 15.11337433 9.4191922 15.11329651 10.71864319 C15.1081891 12.10539794 15.10297309 13.49215229 15.09765625 14.87890625 C15.09579201 16.28995209 15.09436814 17.70099857 15.09336853 19.11204529 C15.08954379 22.83240535 15.0797139 26.5527266 15.06866455 30.27307129 C15.05844948 34.06680781 15.05387071 37.86055058 15.04882812 41.65429688 C15.03809158 49.10288436 15.02049515 56.5514318 15 64 C10.05 64 5.1 64 0 64 C0 63.67 0 63.34 0 63 C4.29 63 8.58 63 13 63 C13 45.18 13 27.36 13 9 C12.34 9 11.68 9 11 9 C11 7.68 11 6.36 11 5 C9.741875 5.12375 8.48375 5.2475 7.1875 5.375 C6.47980469 5.44460938 5.77210938 5.51421875 5.04296875 5.5859375 C2.70011858 5.92665391 2.70011858 5.92665391 0 8 C0 5.36 0 2.72 0 0 Z " fill="#CE414A" transform="translate(509,387)"/>
<path d="M0 0 C4.62 0 9.24 0 14 0 C14 4.62 14 9.24 14 14 C9.38 14 4.76 14 0 14 C0 9.38 0 4.76 0 0 Z " fill="#C21327" transform="translate(679,367)"/>
<path d="M0 0 C3.63 0 7.26 0 11 0 C11 1.98 11 3.96 11 6 C11.66 6 12.32 6 13 6 C13 6.99 13 7.98 13 9 C12.34 9 11.68 9 11 9 C11 12.63 11 16.26 11 20 C10.01 20 9.02 20 8 20 C7.67 17.36 7.34 14.72 7 12 C6.01 14.64 5.02 17.28 4 20 C3.01 20 2.02 20 1 20 C0.67 13.4 0.34 6.8 0 0 Z " fill="#C2C2C0" transform="translate(230,468)"/>
<path d="M0 0 C2.3125 0.8125 2.3125 0.8125 3.3125 1.8125 C3.3125 4.14583333 3.3125 6.47916667 3.3125 8.8125 C3.6425 9.1425 3.9725 9.4725 4.3125 9.8125 C4.7681962 15.05300633 4.7681962 15.05300633 3.1875 17.6875 C0.47031176 19.31781294 -1.58402746 19.14265665 -4.6875 18.8125 C-6.6875 16.8125 -6.6875 16.8125 -6.875 13.3125 C-6.6875 9.8125 -6.6875 9.8125 -5.6875 7.8125 C-5.914375 7.19375 -6.14125 6.575 -6.375 5.9375 C-6.6875 3.8125 -6.6875 3.8125 -5.0625 1.5 C-2.6875 -0.1875 -2.6875 -0.1875 0 0 Z " fill="#262223" transform="translate(527.6875,469.1875)"/>
<path d="M0 0 C1.175625 0.0825 2.35125 0.165 3.5625 0.25 C4.2225 1.24 4.8825 2.23 5.5625 3.25 C4.5725 3.25 3.5825 3.25 2.5625 3.25 C2.5625 9.52 2.5625 15.79 2.5625 22.25 C5.2025 22.25 7.8425 22.25 10.5625 22.25 C10.5625 22.58 10.5625 22.91 10.5625 23.25 C7.5925 23.25 4.6225 23.25 1.5625 23.25 C1.5625 16.65 1.5625 10.05 1.5625 3.25 C-3.3875 3.25 -8.3375 3.25 -13.4375 3.25 C-13.4375 10.18 -13.4375 17.11 -13.4375 24.25 C-16.4075 24.25 -19.3775 24.25 -22.4375 24.25 C-22.4375 28.21 -22.4375 32.17 -22.4375 36.25 C-19.4675 36.25 -16.4975 36.25 -13.4375 36.25 C-13.4375 40.87 -13.4375 45.49 -13.4375 50.25 C-13.7675 50.25 -14.0975 50.25 -14.4375 50.25 C-14.4375 46.95 -14.4375 43.65 -14.4375 40.25 C-16.4175 40.25 -18.3975 40.25 -20.4375 40.25 C-20.7675 39.59 -21.0975 38.93 -21.4375 38.25 C-22.4275 37.92 -23.4175 37.59 -24.4375 37.25 C-24.49136629 35.12527424 -24.53023071 33.00016348 -24.5625 30.875 C-24.58570313 29.69164062 -24.60890625 28.50828125 -24.6328125 27.2890625 C-24.4375 24.25 -24.4375 24.25 -22.4375 22.25 C-19.7975 22.25 -17.1575 22.25 -14.4375 22.25 C-14.4375 15.65 -14.4375 9.05 -14.4375 2.25 C-10.58007812 1.90820312 -10.58007812 1.90820312 -6.72265625 1.56640625 C-3.58657193 1.13217919 -3.54019224 0.25746853 0 0 Z " fill="#EBC5C5" transform="translate(660.4375,363.75)"/>
<path d="M0 0 C1.9375 1.0625 1.9375 1.0625 3 3 C3.38991688 7.36706908 3.46324069 9.30513897 1 13 C-2.4375 13.8125 -2.4375 13.8125 -6 14 C-6.99 13.34 -7.98 12.68 -9 12 C-9 11.34 -9 10.68 -9 10 C-9.66 10 -10.32 10 -11 10 C-11.31785906 6.50355037 -11.39644605 4.602598 -9.4375 1.625 C-6.1005787 -0.5996142 -3.93094707 -0.50030235 0 0 Z " fill="#2D2D2D" transform="translate(291,474)"/>
<path d="M0 0 C3.3 0 6.6 0 10 0 C10 1.32 10 2.64 10 4 C8.68 4.33 7.36 4.66 6 5 C7.32 5 8.64 5 10 5 C10 9.62 10 14.24 10 19 C8.68 19 7.36 19 6 19 C6 16.03 6 13.06 6 10 C5.34 9.67 4.68 9.34 4 9 C3.67 8.67 3.34 8.34 3 8 C3 11.63 3 15.26 3 19 C2.01 19 1.02 19 0 19 C0 15.37 0 11.74 0 8 C-0.66 8 -1.32 8 -2 8 C-2 7.01 -2 6.02 -2 5 C-1.34 5 -0.68 5 0 5 C0 3.35 0 1.7 0 0 Z " fill="#9B9B99" transform="translate(204,469)"/>
<path d="M0 0 C1.875 1.125 1.875 1.125 3 3 C3 8.64728913 0.94225977 13.90897571 -3 18 C-4.32 18 -5.64 18 -7 18 C-6 16 -5 14 -4 12 C-4.928125 11.566875 -4.928125 11.566875 -5.875 11.125 C-8 10 -8 10 -10 8 C-10.38286803 4.26703674 -10.14915785 3.22373677 -8 0 C-4.65044556 -1.11651815 -3.32740404 -0.99822121 0 0 Z " fill="#353132" transform="translate(515,470)"/>
<path d="M0 0 C7.875 0 7.875 0 11 3 C10.6875 6.375 10.6875 6.375 10 10 C7 12 7 12 4 12 C4 14.31 4 16.62 4 19 C2.68 19 1.36 19 0 19 C0 12.73 0 6.46 0 0 Z " fill="#5D5D5B" transform="translate(268,469)"/>
<path d="M0 0 C2.4375 1.75 2.4375 1.75 4 4 C4 5.32 4 6.64 4 8 C0.7 8.33 -2.6 8.66 -6 9 C-2.16380575 9.95904856 -0.67568464 9.91892116 3 9 C1.125 12.875 1.125 12.875 0 14 C-3.52371092 14.39152344 -5.37616451 14.41041808 -8.375 12.4375 C-10.5996142 9.1005787 -10.50030235 6.93094707 -10 3 C-7.7773391 -1.05308751 -4.20075589 -0.5158823 0 0 Z " fill="#363333" transform="translate(485,474)"/>
<path d="M0 0 C0.66 0 1.32 0 2 0 C3.368 5.34763636 3.368 5.34763636 1.625 8.4375 C1.08875 9.283125 0.5525 10.12875 0 11 C-0.71923208 14.69523952 -0.71923208 14.69523952 -1 18 C-1.99 18.33 -2.98 18.66 -4 19 C-4.33 19.66 -4.66 20.32 -5 21 C-11.27 21 -17.54 21 -24 21 C-24 18.69 -24 16.38 -24 14 C-24.33 14 -24.66 14 -25 14 C-25 10.7 -25 7.4 -25 4 C-24.34 5.32 -23.68 6.64 -23 8 C-22.36191406 9.24136719 -22.36191406 9.24136719 -21.7109375 10.5078125 C-21.27007812 11.37148438 -20.82921875 12.23515625 -20.375 13.125 C-19.92898438 13.99382812 -19.48296875 14.86265625 -19.0234375 15.7578125 C-18 18 -18 18 -18 20 C-14.04 20 -10.08 20 -6 20 C-5.938125 18.9275 -5.87625 17.855 -5.8125 16.75 C-5.1017035 10.76207797 -2.46018378 5.44690136 0 0 Z " fill="#EDD9CD" transform="translate(417,431)"/>
<path d="M0 0 C2.97 0 5.94 0 9 0 C9 1.32 9 2.64 9 4 C6.69 4 4.38 4 2 4 C2 4.66 2 5.32 2 6 C2.763125 5.938125 3.52625 5.87625 4.3125 5.8125 C7 6 7 6 8.8125 7.0625 C10.71096021 10.15998772 10.50468055 12.46723617 10 16 C7.8125 18 7.8125 18 5 19 C1.5989856 18.76271993 0.430466 18.430466 -2 16 C-2 15.01 -2 14.02 -2 13 C-1.4225 13.165 -0.845 13.33 -0.25 13.5 C2.26664369 14.14462031 2.26664369 14.14462031 6 14 C6 12.35 6 10.7 6 9 C3.69 9.33 1.38 9.66 -1 10 C-1.125 2.25 -1.125 2.25 0 0 Z " fill="#373332" transform="translate(537,469)"/>
<path d="M0 0 C0.33 0 0.66 0 1 0 C1 12.21 1 24.42 1 37 C-3.95 37 -8.9 37 -14 37 C-14 36.01 -14 35.02 -14 34 C-10.04 34 -6.08 34 -2 34 C-2.01047363 33.1121582 -2.02094727 32.22431641 -2.03173828 31.30957031 C-2.06587756 28.00713493 -2.09092668 24.70488782 -2.10986328 21.40234375 C-2.11990427 19.97457922 -2.13353981 18.54683517 -2.15087891 17.11914062 C-2.17521152 15.06375059 -2.18650202 13.00863308 -2.1953125 10.953125 C-2.20578613 9.71723633 -2.21625977 8.48134766 -2.22705078 7.20800781 C-2.01298081 4.18340629 -1.59653159 2.53014349 0 0 Z " fill="#B8413B" transform="translate(550,414)"/>
<path d="M0 0 C1.1446875 0.3403125 1.1446875 0.3403125 2.3125 0.6875 C2.6425 2.0075 2.9725 3.3275 3.3125 4.6875 C1.6625 4.3575 0.0125 4.0275 -1.6875 3.6875 C-2.0175 4.6775 -2.3475 5.6675 -2.6875 6.6875 C-1.718125 6.996875 -0.74875 7.30625 0.25 7.625 C3.3125 8.6875 3.3125 8.6875 4.3125 9.6875 C4.77125252 14.96315392 4.77125252 14.96315392 3.125 17.5625 C0.65742892 19.09409584 -0.83269831 19.11572025 -3.6875 18.6875 C-5.5 17.375 -5.5 17.375 -6.6875 15.6875 C-6.6875 14.6975 -6.6875 13.7075 -6.6875 12.6875 C-5.6975 12.6875 -4.7075 12.6875 -3.6875 12.6875 C-3.6875 13.3475 -3.6875 14.0075 -3.6875 14.6875 C-2.3675 14.6875 -1.0475 14.6875 0.3125 14.6875 C0.3125 13.3675 0.3125 12.0475 0.3125 10.6875 C-0.491875 10.543125 -1.29625 10.39875 -2.125 10.25 C-4.6875 9.6875 -4.6875 9.6875 -5.6875 8.6875 C-6.14441383 3.43299098 -6.14441383 3.43299098 -4.5 0.75 C-2.6875 -0.3125 -2.6875 -0.3125 0 0 Z " fill="#2F322A" transform="translate(432.6875,469.3125)"/>
<path d="M0 0 C3.25 -0.3125 3.25 -0.3125 7 0 C9.4375 2.3125 9.4375 2.3125 11 5 C11 5.99 11 6.98 11 8 C7.37 8 3.74 8 0 8 C0 8.66 0 9.32 0 10 C3.49234244 10.09978121 6.59437148 9.77842938 10 9 C10 9.66 10 10.32 10 11 C9.34 11 8.68 11 8 11 C8 11.66 8 12.32 8 13 C5.20129973 14.39935013 3.09501208 14.25265405 0 14 C-1.875 12.6875 -1.875 12.6875 -3 11 C-3 10.01 -3 9.02 -3 8 C-2.34 8 -1.68 8 -1 8 C-1 7.01 -1 6.02 -1 5 C1.31 5 3.62 5 6 5 C6 4.34 6 3.68 6 3 C3.36 3.33 0.72 3.66 -2 4 C-1.34 2.68 -0.68 1.36 0 0 Z " fill="#323230" transform="translate(248,474)"/>
<path d="M0 0 C1.9375 1.25 1.9375 1.25 3 3 C3 4.32 3 5.64 3 7 C2.01 6.67 1.02 6.34 0 6 C-0.33 5.34 -0.66 4.68 -1 4 C-2.65 4 -4.3 4 -6 4 C-6.33 4.66 -6.66 5.32 -7 6 C-5.35 6 -3.7 6 -2 6 C-2 6.33 -2 6.66 -2 7 C-3.65 7 -5.3 7 -7 7 C-6.67 7.99 -6.34 8.98 -6 10 C-1.545 9.505 -1.545 9.505 3 9 C2.34 10.32 1.68 11.64 1 13 C-2.3125 14.0625 -2.3125 14.0625 -6 14 C-9 11.9375 -9 11.9375 -11 9 C-11 5.76578825 -10.53173428 3.88622381 -8.875 1.125 C-5.87553214 -0.67468071 -3.40613332 -0.36494286 0 0 Z " fill="#2C302B" transform="translate(381,474)"/>
<path d="M0 0 C3.3 0 6.6 0 10 0 C11.93395001 3.86790003 12.23289353 5.1500459 12.125 9.25 C12.10695312 10.14203125 12.08890625 11.0340625 12.0703125 11.953125 C12.03550781 12.96632813 12.03550781 12.96632813 12 14 C10.68 14 9.36 14 8 14 C8 10.37 8 6.74 8 3 C6.35 3 4.7 3 3 3 C3 6.63 3 10.26 3 14 C2.01 14 1.02 14 0 14 C0 9.38 0 4.76 0 0 Z " fill="#383836" transform="translate(217,474)"/>
<path d="M0 0 C0.33 0.66 0.66 1.32 1 2 C1.66 2 2.32 2 3 2 C3.05434116 4.5419589 3.0938339 7.08273682 3.125 9.625 C3.14175781 10.33785156 3.15851563 11.05070312 3.17578125 11.78515625 C3.21684602 16.2612164 2.69086567 19.77949278 1 24 C0.34 24 -0.32 24 -1 24 C-1 24.66 -1 25.32 -1 26 C-1.66 26 -2.32 26 -3 26 C-3 26.66 -3 27.32 -3 28 C-4.32 28 -5.64 28 -7 28 C-7.66 29.32 -8.32 30.64 -9 32 C-11.31 32 -13.62 32 -16 32 C-16 31.67 -16 31.34 -16 31 C-19.63 30.67 -23.26 30.34 -27 30 C-27 28.68 -27 27.36 -27 26 C-21.125 26.875 -21.125 26.875 -20 28 C-12.77793155 28.84179502 -12.77793155 28.84179502 -6.5 26 C-6.005 25.34 -5.51 24.68 -5 24 C-4.01 24 -3.02 24 -2 24 C-1.87625 23.401875 -1.7525 22.80375 -1.625 22.1875 C-1 20 -1 20 1 17 C1.28049188 14.19606196 1.28049188 14.19606196 1.1875 11.125 C1.18105469 10.09632813 1.17460937 9.06765625 1.16796875 8.0078125 C1.01326897 5.23760708 0.62248889 2.69911183 0 0 Z " fill="#BF323E" transform="translate(505,408)"/>
<path d="M0 0 C1.32 0 2.64 0 4 0 C4 6.27 4 12.54 4 19 C-1 19 -1 19 -4 17 C-3.855625 16.31292969 -3.71125 15.62585938 -3.5625 14.91796875 C-3.376875 14.01691406 -3.19125 13.11585938 -3 12.1875 C-2.814375 11.29417969 -2.62875 10.40085937 -2.4375 9.48046875 C-1.91315157 6.92739307 -1.91315157 6.92739307 -2 4 C-1.34 4 -0.68 4 0 4 C0 2.68 0 1.36 0 0 Z " fill="#B5B4B9" transform="translate(339,469)"/>
<path d="M0 0 C1.8125 1.4375 1.8125 1.4375 3 3 C3 3.66 3 4.32 3 5 C0.03 4.67 -2.94 4.34 -6 4 C-6 5.98 -6 7.96 -6 10 C-1.545 9.505 -1.545 9.505 3 9 C1.875 11.5 1.875 11.5 0 14 C-3.79613546 14.74272216 -5.51078434 14.2765132 -8.875 12.375 C-11 10 -11 10 -11.5625 7 C-10.88701736 3.3974259 -9.83326787 2.24994801 -7 0 C-4.26634878 -1.36682561 -2.89333621 -0.84683011 0 0 Z " fill="#403C3A" transform="translate(470,474)"/>
<path d="M0 0 C1.60875 -0.020625 3.2175 -0.04125 4.875 -0.0625 C5.77992188 -0.07410156 6.68484375 -0.08570313 7.6171875 -0.09765625 C10 0 10 0 12 1 C12 5.29 12 9.58 12 14 C11.01 14 10.02 14 9 14 C8.67 10.7 8.34 7.4 8 4 C6.68 3.67 5.36 3.34 4 3 C3.67 6.63 3.34 10.26 3 14 C2.01 14 1.02 14 0 14 C0 9.38 0 4.76 0 0 Z " fill="#323230" transform="translate(188,474)"/>
<path d="M0 0 C1.60875 -0.04125 3.2175 -0.0825 4.875 -0.125 C5.77992188 -0.14820313 6.68484375 -0.17140625 7.6171875 -0.1953125 C10 0 10 0 12 2 C12.1953125 4.6015625 12.1953125 4.6015625 12.125 7.625 C12.10695313 8.62789063 12.08890625 9.63078125 12.0703125 10.6640625 C12.03550781 11.82035156 12.03550781 11.82035156 12 13 C11.01 13 10.02 13 9 13 C8.67 10.03 8.34 7.06 8 4 C6.68 4 5.36 4 4 4 C3.67 7.3 3.34 10.6 3 14 C2.01 14 1.02 14 0 14 C0 9.38 0 4.76 0 0 Z " fill="#282520" transform="translate(445,474)"/>
<path d="M0 0 C2.4375 0.75 2.4375 0.75 5 2 C6.8154121 5.50115191 5.6473938 9.25950251 5 13 C2.03 13 -0.94 13 -4 13 C-2.125 3.89285714 -2.125 3.89285714 0 0 Z " fill="#3C2F65" transform="translate(346,270)"/>
<path d="M0 0 C2.97 0 5.94 0 9 0 C8.45660208 4.56454251 7.20536179 7.9728176 5 12 C4.01 12 3.02 12 2 12 C2 11.34 2 10.68 2 10 C1.01 10 0.02 10 -1 10 C-1.125 3.375 -1.125 3.375 0 0 Z " fill="#412A73" transform="translate(378,285)"/>
<path d="M0 0 C2.97 0 5.94 0 9 0 C9.33 3.3 9.66 6.6 10 10 C8.35 10.66 6.7 11.32 5 12 C2.03162219 7.97832683 0.47610659 4.99911924 0 0 Z " fill="#3E3068" transform="translate(342,285)"/>
<path d="M0 0 C1.32 0 2.64 0 4 0 C4 1.65 4 3.3 4 5 C4.66 5 5.32 5 6 5 C6 5.99 6 6.98 6 8 C5.34 8 4.68 8 4 8 C4 11.63 4 15.26 4 19 C2.68 19 1.36 19 0 19 C0 15.37 0 11.74 0 8 C-0.66 8 -1.32 8 -2 8 C-2 7.01 -2 6.02 -2 5 C-1.34 5 -0.68 5 0 5 C0 3.35 0 1.7 0 0 Z " fill="#4A4B4C" transform="translate(358,469)"/>
<path d="M0 0 C3.3 0.66 6.6 1.32 10 2 C10 4.31 10 6.62 10 9 C6.37 9 2.74 9 -1 9 C-1.125 2.25 -1.125 2.25 0 0 Z " fill="#3C2C6A" transform="translate(354,274)"/>
<path d="M0 0 C3.63 0 7.26 0 11 0 C11 2.31 11 4.62 11 7 C7.7 7.33 4.4 7.66 1 8 C0.67 5.36 0.34 2.72 0 0 Z " fill="#36236F" transform="translate(353,285)"/>
<path d="M0 0 C0.598125 0.20625 1.19625 0.4125 1.8125 0.625 C1.8125 1.615 1.8125 2.605 1.8125 3.625 C0.4925 3.955 -0.8275 4.285 -2.1875 4.625 C-0.5375 5.615 1.1125 6.605 2.8125 7.625 C2.4825 9.605 2.1525 11.585 1.8125 13.625 C-1.0625 14.25 -1.0625 14.25 -4.1875 14.625 C-4.8475 13.965 -5.5075 13.305 -6.1875 12.625 C-6.1875 11.635 -6.1875 10.645 -6.1875 9.625 C-5.1975 9.625 -4.2075 9.625 -3.1875 9.625 C-3.1875 10.285 -3.1875 10.945 -3.1875 11.625 C-2.1975 11.625 -1.2075 11.625 -0.1875 11.625 C-1.82162443 9.91659719 -3.05656094 8.69046953 -5.1875 7.625 C-5.375 4.75 -5.375 4.75 -5.1875 1.625 C-2.1875 -0.375 -2.1875 -0.375 0 0 Z " fill="#2D312C" transform="translate(392.1875,473.375)"/>
<path d="M0 0 C0.78375 0.04125 1.5675 0.0825 2.375 0.125 C2.705 1.445 3.035 2.765 3.375 4.125 C0.9 3.135 0.9 3.135 -1.625 2.125 C-1.191875 2.558125 -0.75875 2.99125 -0.3125 3.4375 C0.244375 3.994375 0.80125 4.55125 1.375 5.125 C1.9525 5.57875 2.53 6.0325 3.125 6.5 C4.375 8.125 4.375 8.125 4.0625 10.8125 C3.835625 11.575625 3.60875 12.33875 3.375 13.125 C0.5 13.75 0.5 13.75 -2.625 14.125 C-3.285 13.465 -3.945 12.805 -4.625 12.125 C-4.625 11.135 -4.625 10.145 -4.625 9.125 C-3.635 9.125 -2.645 9.125 -1.625 9.125 C-1.625 9.785 -1.625 10.445 -1.625 11.125 C-0.635 11.125 0.355 11.125 1.375 11.125 C0.570625 10.3825 -0.23375 9.64 -1.0625 8.875 C-4.52019651 5.16430131 -4.52019651 5.16430131 -4.625 2.125 C-2.625 0.125 -2.625 0.125 0 0 Z " fill="#303033" transform="translate(300.625,473.875)"/>
<path d="M0 0 C2 2 2 2 2.125 5.625 C2.08375 6.73875 2.0425 7.8525 2 9 C-1.3 9 -4.6 9 -8 9 C-8 6.69 -8 4.38 -8 2 C-6.71254964 1.61077082 -5.41980403 1.23901964 -4.125 0.875 C-3.04605469 0.56175781 -3.04605469 0.56175781 -1.9453125 0.2421875 C-1.30335938 0.16226562 -0.66140625 0.08234375 0 0 Z " fill="#402C69" transform="translate(374,274)"/>
<path d="M0 0 C1.32 0 2.64 0 4 0 C4 6.27 4 12.54 4 19 C2.68 19 1.36 19 0 19 C0 12.73 0 6.46 0 0 Z " fill="#49484D" transform="translate(345,469)"/>
<path d="M0 0 C0.33 0 0.66 0 1 0 C1.20753906 0.81082031 1.41507812 1.62164062 1.62890625 2.45703125 C3.90825608 10.64933881 7.10262583 17.07612617 12 24 C12.66 24.99 13.32 25.98 14 27 C12.68 26.67 11.36 26.34 10 26 C10 26.66 10 27.32 10 28 C8.68 27.67 7.36 27.34 6 27 C6 26.01 6 25.02 6 24 C6.66 24 7.32 24 8 24 C7.25943359 22.75283203 7.25943359 22.75283203 6.50390625 21.48046875 C5.86324219 20.39378906 5.22257812 19.30710937 4.5625 18.1875 C3.92441406 17.10855469 3.28632813 16.02960938 2.62890625 14.91796875 C0.53492131 11.16687342 -0.12376328 8.53966653 -0.0625 4.3125 C-0.05347656 3.50425781 -0.04445313 2.69601562 -0.03515625 1.86328125 C-0.02355469 1.24839844 -0.01195312 0.63351562 0 0 Z " fill="#F9D1D5" transform="translate(258,293)"/>
<path d="M0 0 C1.4540625 0.0309375 1.4540625 0.0309375 2.9375 0.0625 C2.9375 1.0525 2.9375 2.0425 2.9375 3.0625 C1.6175 2.7325 0.2975 2.4025 -1.0625 2.0625 C-1.0625 3.0525 -1.0625 4.0425 -1.0625 5.0625 C1.4125 6.0525 1.4125 6.0525 3.9375 7.0625 C4.125 9.4375 4.125 9.4375 3.9375 12.0625 C0.9375 14.0625 0.9375 14.0625 -1.75 13.6875 C-2.513125 13.48125 -3.27625 13.275 -4.0625 13.0625 C-4.3925 11.7425 -4.7225 10.4225 -5.0625 9.0625 C-4.0725 9.0625 -3.0825 9.0625 -2.0625 9.0625 C-2.0625 9.7225 -2.0625 10.3825 -2.0625 11.0625 C-1.0725 11.0625 -0.0825 11.0625 0.9375 11.0625 C0.9375 10.0725 0.9375 9.0825 0.9375 8.0625 C0.298125 7.918125 -0.34125 7.77375 -1 7.625 C-3.0625 7.0625 -3.0625 7.0625 -4.0625 6.0625 C-4.1875 3.5625 -4.1875 3.5625 -4.0625 1.0625 C-3.0625 0.0625 -3.0625 0.0625 0 0 Z " fill="#2D2C31" transform="translate(311.0625,473.9375)"/>
<path d="M0 0 C0.33 0 0.66 0 1 0 C1 4.29 1 8.58 1 13 C-1.97 12.67 -4.94 12.34 -8 12 C-6.96483052 7.85932209 -5.83392052 6.09154966 -3 3 C-2.34 3 -1.68 3 -1 3 C-0.67 2.01 -0.34 1.02 0 0 Z " fill="#403363" transform="translate(363,261)"/>
<path d="M0 0 C1.32 0.33 2.64 0.66 4 1 C4 6.94 4 12.88 4 19 C2.68 19 1.36 19 0 19 C0 12.73 0 6.46 0 0 Z " fill="#5A595E" transform="translate(317,469)"/>
<path d="M0 0 C0.66 0 1.32 0 2 0 C1.67 1.65 1.34 3.3 1 5 C0.01 5.33 -0.98 5.66 -2 6 C-3.13487578 8.93886906 -3.16367591 11.8742796 -3.1875 15 C-3.20167969 15.845625 -3.21585937 16.69125 -3.23046875 17.5625 C-3.15201438 20.02394304 -3.15201438 20.02394304 -1.92578125 22.0625 C-1 24 -1 24 -1.375 26.25 C-1.58125 26.8275 -1.7875 27.405 -2 28 C-6.06847738 21.38872425 -7.10831949 15.73650465 -6 8 C-4.63884011 4.69250868 -2.52035799 2.52035799 0 0 Z " fill="#F0D6C0" transform="translate(478,404)"/>
<path d="M0 0 C3.3 0 6.6 0 10 0 C9.67 2.64 9.34 5.28 9 8 C6.03 7.67 3.06 7.34 0 7 C0 4.69 0 2.38 0 0 Z " fill="#36216B" transform="translate(366,285)"/>
<path d="M0 0 C1.32 0 2.64 0 4 0 C4 0.66 4 1.32 4 2 C3.34 2 2.68 2 2 2 C2 2.66 2 3.32 2 4 C2.66 4 3.32 4 4 4 C4 4.99 4 5.98 4 7 C3.34 7 2.68 7 2 7 C2 10.63 2 14.26 2 18 C1.01 18 0.02 18 -1 18 C-1 14.37 -1 10.74 -1 7 C-1.66 7 -2.32 7 -3 7 C-3 6.01 -3 5.02 -3 4 C-2.34 4 -1.68 4 -1 4 C-0.67 2.68 -0.34 1.36 0 0 Z " fill="#30302E" transform="translate(205,470)"/>
<path d="M0 0 C0.99 0 1.98 0 3 0 C3 1.65 3 3.3 3 5 C3.66 5 4.32 5 5 5 C5 5.99 5 6.98 5 8 C4.34 8 3.68 8 3 8 C3 11.63 3 15.26 3 19 C2.01 19 1.02 19 0 19 C0 15.37 0 11.74 0 8 C-0.66 8 -1.32 8 -2 8 C-2 7.01 -2 6.02 -2 5 C-1.34 5 -0.68 5 0 5 C0 3.35 0 1.7 0 0 Z " fill="#383837" transform="translate(238,469)"/>
<path d="M0 0 C2.31 0 4.62 0 7 0 C7 6.27 7 12.54 7 19 C6.01 19 5.02 19 4 19 C4 13.72 4 8.44 4 3 C2.68 3 1.36 3 0 3 C0 2.01 0 1.02 0 0 Z " fill="#383435" transform="translate(492,469)"/>
<path d="M0 0 C1.32 0 2.64 0 4 0 C4 6 4 12 4 18 C2.68 18 1.36 18 0 18 C0 12.06 0 6.12 0 0 Z " fill="#4E4D52" transform="translate(351,470)"/>
<path d="M0 0 C1.2065625 0.0309375 1.2065625 0.0309375 2.4375 0.0625 C2.4375 1.72916667 2.4375 3.39583333 2.4375 5.0625 C4.0875 5.0625 5.7375 5.0625 7.4375 5.0625 C7.7675 4.0725 8.0975 3.0825 8.4375 2.0625 C8.7675 5.0325 9.0975 8.0025 9.4375 11.0625 C9.1075 10.0725 8.7775 9.0825 8.4375 8.0625 C7.7775 8.0625 7.1175 8.0625 6.4375 8.0625 C6.4375 8.7225 6.4375 9.3825 6.4375 10.0625 C5.7775 9.7325 5.1175 9.4025 4.4375 9.0625 C4.7675 8.4025 5.0975 7.7425 5.4375 7.0625 C3.4884375 7.3409375 3.4884375 7.3409375 1.5 7.625 C-0.71484375 7.94140625 -0.71484375 7.94140625 -2.5625 8.0625 C-3.5625 7.0625 -3.5625 7.0625 -3.6875 4.0625 C-3.52180824 0.08589776 -3.52180824 0.08589776 0 0 Z " fill="#DFDCDA" transform="translate(466.5625,476.9375)"/>
<path d="M0 0 C0.99 1.32 1.98 2.64 3 4 C2.70033264 5.92901611 2.70033264 5.92901611 2 8 C1.88809508 9.70962311 1.82435885 11.42271769 1.79467773 13.13574219 C1.77473251 14.15649841 1.75478729 15.17725464 1.73423767 16.22894287 C1.71752518 17.32386047 1.70081268 18.41877808 1.68359375 19.546875 C1.66281265 20.6732135 1.64203156 21.799552 1.62062073 22.96002197 C1.55525667 26.55661949 1.49630115 30.15328977 1.4375 33.75 C1.3943023 36.1888096 1.3506876 38.62761184 1.30664062 41.06640625 C1.1995887 47.044194 1.09779783 53.02205407 1 59 C0.67 59 0.34 59 0 59 C0 39.53 0 20.06 0 0 Z " fill="#F9AFAE" transform="translate(377,392)"/>
<path d="M0 0 C0.33 0.66 0.66 1.32 1 2 C1.78375 1.814375 2.5675 1.62875 3.375 1.4375 C6 1 6 1 8 2 C8 2.66 8 3.32 8 4 C5.69 4 3.38 4 1 4 C1 4.99 1 5.98 1 7 C0.34 7 -0.32 7 -1 7 C-0.34 8.65 0.32 10.3 1 12 C-3.875 13 -3.875 13 -5 13 C-5 9.37 -5 5.74 -5 2 C-3.68 2.33 -2.36 2.66 -1 3 C-0.67 2.01 -0.34 1.02 0 0 Z " fill="#CBCBC9" transform="translate(246,475)"/>
<path d="M0 0 C0.66 0 1.32 0 2 0 C2 1.98 2 3.96 2 6 C2.66 6 3.32 6 4 6 C4 7.32 4 8.64 4 10 C4.66 10 5.32 10 6 10 C6 10.66 6 11.32 6 12 C6.66 12 7.32 12 8 12 C8 13.32 8 14.64 8 16 C9.98 16 11.96 16 14 16 C14 16.66 14 17.32 14 18 C15.65 18 17.3 18 19 18 C19 18.33 19 18.66 19 19 C15.04 19 11.08 19 7 19 C0 5.48275862 0 5.48275862 0 0 Z " fill="#B53036" transform="translate(392,432)"/>
<path d="M0 0 C0 3.63 0 7.26 0 11 C-4.03328547 8.98335727 -5.51446675 7.63953082 -8 4 C-8 3.01 -8 2.02 -8 1 C-5.29120665 -0.35439668 -2.99066732 -0.06501451 0 0 Z " fill="#493977" transform="translate(364,294)"/>
<path d="M0 0 C4.51290803 3.33562767 6.68206814 5.33289301 8 11 C5.36 11.33 2.72 11.66 0 12 C0 8.04 0 4.08 0 0 Z " fill="#3B285F" transform="translate(366,262)"/>
<path d="M0 0 C0.33 0 0.66 0 1 0 C1 2.31 1 4.62 1 7 C5.95 7 10.9 7 16 7 C16 7.33 16 7.66 16 8 C15.11957031 8.06058594 14.23914063 8.12117188 13.33203125 8.18359375 C11.58986328 8.30927734 11.58986328 8.30927734 9.8125 8.4375 C8.08966797 8.55931641 8.08966797 8.55931641 6.33203125 8.68359375 C3.48401829 8.95403812 0.78789518 9.37521747 -2 10 C-2 9.01 -2 8.02 -2 7 C-6.455 7.495 -6.455 7.495 -11 8 C-8.99956602 6.99978301 -6.99643011 5.9984855 -4.9375 5.125 C-2.617748 3.77804723 -1.52385206 2.17693151 0 0 Z " fill="#F6F0D9" transform="translate(614,444)"/>
<path d="M0 0 C3.3 0 6.6 0 10 0 C10 0.66 10 1.32 10 2 C14.62 2 19.24 2 24 2 C24 1.34 24 0.68 24 0 C25.98 0 27.96 0 30 0 C24.01141766 4.91919264 17.49400006 4.54968216 10 4 C6.56880541 3.23355134 3.29392981 2.2242925 0 1 C0 0.67 0 0.34 0 0 Z " fill="#BA2A38" transform="translate(474,448)"/>
<path d="M0 0 C1.44096586 0.42594588 2.87768712 0.86626633 4.3125 1.3125 C5.11300781 1.55613281 5.91351563 1.79976563 6.73828125 2.05078125 C9.09964573 3.04182023 10.33879993 4.08074943 12 6 C11.34 7.32 10.68 8.64 10 10 C8.68 10 7.36 10 6 10 C4.296875 7.8125 4.296875 7.8125 2.75 5 C2.22921875 4.071875 1.7084375 3.14375 1.171875 2.1875 C0.78515625 1.465625 0.3984375 0.74375 0 0 Z " fill="#503C74" transform="translate(369,261)"/>
<path d="M0 0 C1.32 0.33 2.64 0.66 4 1 C3.67 1.99 3.34 2.98 3 4 C2.93029948 6.39490986 2.91551997 8.79167691 2.9375 11.1875 C2.94652344 12.45980469 2.95554687 13.73210937 2.96484375 15.04296875 C2.97644531 16.01878906 2.98804688 16.99460937 3 18 C2.01 18 1.02 18 0 18 C0 12.06 0 6.12 0 0 Z " fill="#3C3E3C" transform="translate(365,470)"/>
<path d="M0 0 C0.66 0.33 1.32 0.66 2 1 C1.67 1.66 1.34 2.32 1 3 C5.455 3.99 5.455 3.99 10 5 C10 5.33 10 5.66 10 6 C7.36 6 4.72 6 2 6 C2 10.62 2 15.24 2 20 C1.67 20 1.34 20 1 20 C0.90912109 19.11248047 0.90912109 19.11248047 0.81640625 18.20703125 C0.37987629 14.09021792 -0.08671346 10.04455467 -1 6 C-2.32 6 -3.64 6 -5 6 C-4.67 5.34 -4.34 4.68 -4 4 C-3.01 4.33 -2.02 4.66 -1 5 C-0.67 3.35 -0.34 1.7 0 0 Z " fill="#D7D7D5" transform="translate(215,468)"/>
<path d="M0 0 C0.99 0 1.98 0 3 0 C3 5.94 3 11.88 3 18 C2.01 18 1.02 18 0 18 C0 12.06 0 6.12 0 0 Z " fill="#1F1F1C" transform="translate(182,470)"/>
<path d="M0 0 C0.66 0.33 1.32 0.66 2 1 C1.34 2.65 0.68 4.3 0 6 C-7.59 6 -15.18 6 -23 6 C-20 3 -20 3 -18.03881836 2.70703125 C-17.31315674 2.74183594 -16.58749512 2.77664063 -15.83984375 2.8125 C-14.6497168 2.84730469 -14.6497168 2.84730469 -13.43554688 2.8828125 C-12.61119141 2.92148437 -11.78683594 2.96015625 -10.9375 3 C-9.30137094 3.07639513 -7.66455315 3.13954269 -6.02734375 3.1875 C-5.30281006 3.22230469 -4.57827637 3.25710938 -3.83178711 3.29296875 C-3.22729736 3.19628906 -2.62280762 3.09960938 -2 3 C-1.34 2.01 -0.68 1.02 0 0 Z " fill="#AE4765" transform="translate(340,270)"/>
<path d="M0 0 C-0.66 1.32 -1.32 2.64 -2 4 C-3.32 4 -4.64 4 -6 4 C-6 4.66 -6 5.32 -6 6 C-7.75 7.7265625 -7.75 7.7265625 -10 9.625 C-10.7425 10.25664062 -11.485 10.88828125 -12.25 11.5390625 C-12.8275 12.02117187 -13.405 12.50328125 -14 13 C-14.66 12.67 -15.32 12.34 -16 12 C-11.9534024 5.64106091 -8.2877301 0 0 0 Z " fill="#C5384D" transform="translate(478,388)"/>
<path d="M0 0 C1.26169079 0.64426764 2.51693469 1.30250851 3.75 2 C3.75 2.33 3.75 2.66 3.75 3 C1.77 3 -0.21 3 -2.25 3 C-2.25 2.34 -2.25 1.68 -2.25 1 C-9.18 1 -16.11 1 -23.25 1 C-16.34505897 -3.60329402 -7.45520723 -3.34892642 0 0 Z " fill="#E4C2E9" transform="translate(431.25,259)"/>
<path d="M0 0 C2.625 -0.1875 2.625 -0.1875 5 0 C5.625 2.875 5.625 2.875 6 6 C5.34 6.66 4.68 7.32 4 8 C1.375 7.625 1.375 7.625 -1 7 C-1.625 5.1875 -1.625 5.1875 -2 3 C-1.34 2.01 -0.68 1.02 0 0 Z " fill="#E2E1E5" transform="translate(328,477)"/>
<path d="M0 0 C1.98 0 3.96 0 6 0 C6.6796875 1.765625 6.6796875 1.765625 7 4 C5.8203125 5.921875 5.8203125 5.921875 4.125 7.75 C3.29355469 8.67039062 3.29355469 8.67039062 2.4453125 9.609375 C1 11 1 11 0 11 C0 7.37 0 3.74 0 0 Z " fill="#3C286F" transform="translate(366,294)"/>
<path d="M0 0 C2.5 0.125 2.5 0.125 3.5 1.125 C3.54080783 3.12458364 3.54254356 5.12545254 3.5 7.125 C-1.25 8.25 -1.25 8.25 -3.5 7.125 C-3.54254356 5.12545254 -3.54080783 3.12458364 -3.5 1.125 C-2.5 0.125 -2.5 0.125 0 0 Z " fill="#E8E8E8" transform="translate(287.5,476.875)"/>
<path d="M0 0 C0 0.66 0 1.32 0 2 C-0.66 2 -1.32 2 -2 2 C-2 2.99 -2 3.98 -2 5 C-1.34 5 -0.68 5 0 5 C0 8.63 0 12.26 0 16 C-0.66 15.34 -1.32 14.68 -2 14 C-2.66 14.66 -3.32 15.32 -4 16 C-4 11.71 -4 7.42 -4 3 C-4.66 2.67 -5.32 2.34 -6 2 C-3 0 -3 0 0 0 Z " fill="#D5D5D3" transform="translate(204,472)"/>
<path d="M0 0 C-0.73170581 1.34345985 -1.48605753 2.67460584 -2.25 4 C-2.87648438 5.11375 -2.87648438 5.11375 -3.515625 6.25 C-4.00546875 6.8275 -4.4953125 7.405 -5 8 C-6.32 8 -7.64 8 -9 8 C-9 7.34 -9 6.68 -9 6 C-9.66 6 -10.32 6 -11 6 C-9.89210592 2.67631776 -9.51563783 2.38436907 -6.625 0.75 C-6.01914062 0.39421875 -5.41328125 0.0384375 -4.7890625 -0.328125 C-3 -1 -3 -1 0 0 Z " fill="#473F64" transform="translate(359,263)"/>
<path d="M0 0 C0.66 0.66 1.32 1.32 2 2 C2.99 1.67 3.98 1.34 5 1 C5.99 1.33 6.98 1.66 8 2 C8 3.32 8 4.64 8 6 C6.68 6 5.36 6 4 6 C4 5.34 4 4.68 4 4 C3.01 4 2.02 4 1 4 C1.99 5.98 2.98 7.96 4 10 C2.35 10 0.7 10 -1 10 C-1.33 7.69 -1.66 5.38 -2 3 C-1.34 3 -0.68 3 0 3 C0 2.01 0 1.02 0 0 Z " fill="#E1E5DD" transform="translate(425,478)"/>
<path d="M0 0 C3.53233755 1.17744585 3.86308075 1.95605641 5.6875 5.0625 C6.34298828 6.16271484 6.34298828 6.16271484 7.01171875 7.28515625 C7.33785156 7.85105469 7.66398437 8.41695313 8 9 C3.48521602 8.46884894 0.65333143 6.63379708 -3 4 C-2.67 3.01 -2.34 2.02 -2 1 C-1.34 0.67 -0.68 0.34 0 0 Z " fill="#473B70" transform="translate(352,296)"/>
<path d="M0 0 C1.65 0.33 3.3 0.66 5 1 C4.67 2.32 4.34 3.64 4 5 C4.99 5.66 5.98 6.32 7 7 C4.21136993 8.39431504 2.07921132 8.25660094 -1 8 C-1.66 7.01 -2.32 6.02 -3 5 C-2.01 5 -1.02 5 0 5 C0 3.35 0 1.7 0 0 Z " fill="#413E3F" transform="translate(524,480)"/>
<path d="M0 0 C1.32 0 2.64 0 4 0 C3.89171875 0.85271484 3.89171875 0.85271484 3.78125 1.72265625 C3.20416899 6.52364968 2.89714162 11.16565627 3 16 C2.01 16 1.02 16 0 16 C0 10.72 0 5.44 0 0 Z " fill="#1C1C1A" transform="translate(268,471)"/>
<path d="M0 0 C0.66 0 1.32 0 2 0 C2 4.62 2 9.24 2 14 C1.67 14 1.34 14 1 14 C0.773125 13.05125 0.54625 12.1025 0.3125 11.125 C-0.69083714 7.80676612 -0.69083714 7.80676612 -3.625 6.625 C-4.40875 6.41875 -5.1925 6.2125 -6 6 C-5.67 4.68 -5.34 3.36 -5 2 C-2.525 2.99 -2.525 2.99 0 4 C0 2.68 0 1.36 0 0 Z " fill="#F8F9F1" transform="translate(436,470)"/>
<path d="M0 0 C1.67542976 0.28604898 3.34385343 0.61781233 5 1 C5 1.66 5 2.32 5 3 C4.34 3 3.68 3 3 3 C3 4.98 3 6.96 3 9 C1.02 9.99 1.02 9.99 -1 11 C-1.02688151 9.35425434 -1.04634123 7.70838587 -1.0625 6.0625 C-1.07410156 5.14597656 -1.08570313 4.22945313 -1.09765625 3.28515625 C-1 1 -1 1 0 0 Z " fill="#E1DED8" transform="translate(449,477)"/>
<path d="M0 0 C0.33 0 0.66 0 1 0 C1 4.29 1 8.58 1 13 C0.01 12.67 -0.98 12.34 -2 12 C-2 10.35 -2 8.7 -2 7 C-3.32 6.34 -4.64 5.68 -6 5 C-6 4.01 -6 3.02 -6 2 C-4.68 2.33 -3.36 2.66 -2 3 C-1.67 2.34 -1.34 1.68 -1 1 C-0.67 0.67 -0.34 0.34 0 0 Z " fill="#DAD9DE" transform="translate(316,474)"/>
<path d="M0 0 C1.98 0.66 3.96 1.32 6 2 C0.46153846 7.84615385 0.46153846 7.84615385 -3 9 C-3.99 8.67 -4.98 8.34 -6 8 C-4.02 5.36 -2.04 2.72 0 0 Z " fill="#41316D" transform="translate(375,296)"/>
<path d="M0 0 C0.99 0 1.98 0 3 0 C3 4.62 3 9.24 3 14 C2.01 14 1.02 14 0 14 C0 9.38 0 4.76 0 0 Z " fill="#36353A" transform="translate(340,474)"/>
<path d="M0 0 C1.32 0 2.64 0 4 0 C4 0.66 4 1.32 4 2 C4.99 2 5.98 2 7 2 C10.48214286 8.5625 10.48214286 8.5625 9.1875 12.9375 C8.795625 13.948125 8.40375 14.95875 8 16 C7.67 16 7.34 16 7 16 C6.87625 15.030625 6.7525 14.06125 6.625 13.0625 C6.315625 11.5465625 6.315625 11.5465625 6 10 C5.34 9.67 4.68 9.34 4 9 C4.0825 8.2575 4.165 7.515 4.25 6.75 C3.92894816 3.21842973 2.64734383 2.23369636 0 0 Z " fill="#DAD7D8" transform="translate(513,469)"/>
<path d="M0 0 C0.99 0 1.98 0 3 0 C3 4.62 3 9.24 3 14 C2.01 14 1.02 14 0 14 C0 9.38 0 4.76 0 0 Z " fill="#2F3027" transform="translate(439,474)"/>
<path d="M0 0 C0.99 0 1.98 0 3 0 C3 4.62 3 9.24 3 14 C2.01 14 1.02 14 0 14 C0 9.38 0 4.76 0 0 Z " fill="#3C3C3A" transform="translate(231,474)"/>
<path d="M0 0 C0.99 0 1.98 0 3 0 C3 4.62 3 9.24 3 14 C2.01 14 1.02 14 0 14 C0 9.38 0 4.76 0 0 Z " fill="#2E2E2C" transform="translate(211,474)"/>
<path d="M0 0 C3.69230769 0.69230769 3.69230769 0.69230769 5 2 C4.28 8.72 4.28 8.72 3 10 C1.33382885 10.04063832 -0.33388095 10.042721 -2 10 C-1.34 9.01 -0.68 8.02 0 7 C0.38499891 5.34450469 0.72793135 3.6777567 1 2 C0.34 1.67 -0.32 1.34 -1 1 C-0.67 0.67 -0.34 0.34 0 0 Z " fill="#212120" transform="translate(274,470)"/>
<path d="M0 0 C2.70502403 0.87730509 4.68400006 1.71668971 6.8125 3.625 C8.64350721 7.28701442 8.38880507 9.91754672 8 14 C6.5 16 6.5 16 5 17 C4.67 16.01 4.34 15.02 4 14 C4.66 14 5.32 14 6 14 C5.835 13.071875 5.67 12.14375 5.5 11.1875 C5 8 5 8 5 5 C3.35178756 3.96986723 1.68496298 2.96885372 0 2 C0 1.34 0 0.68 0 0 Z " fill="#D5CFEB" transform="translate(56,418)"/>
<path d="M0 0 C0 0.66 0 1.32 0 2 C-0.99 2 -1.98 2 -3 2 C-3 1.34 -3 0.68 -3 0 C-3.99 0 -4.98 0 -6 0 C-6 0.99 -6 1.98 -6 3 C-6.66 3 -7.32 3 -8 3 C-8 2.01 -8 1.02 -8 0 C-8.721875 0.350625 -9.44375 0.70125 -10.1875 1.0625 C-13.3122705 2.10409017 -14.88161996 1.89096572 -18 1 C-18 0.34 -18 -0.32 -18 -1 C-15.93906592 -1.223293 -13.8761161 -1.42802887 -11.8125 -1.625 C-10.66394531 -1.74101562 -9.51539063 -1.85703125 -8.33203125 -1.9765625 C-4.96669584 -2.00023426 -2.98778294 -1.47419799 0 0 Z " fill="#E0E4DF" transform="translate(392,483)"/>
<path d="M0 0 C4.51714017 1.34293356 5.7691052 2.94382764 8 7 C8.99 7.66 9.98 8.32 11 9 C11 9.66 11 10.32 11 11 C10.01 11 9.02 11 8 11 C8 10.34 8 9.68 8 9 C6.02 9.66 4.04 10.32 2 11 C2.06510417 9.01432292 2.13020833 7.02864583 2.1953125 5.04296875 C2.13254462 2.68640281 2.13254462 2.68640281 0 0 Z " fill="#D4D4D6" transform="translate(291,474)"/>
<path d="M0 0 C1.32 0.66 2.64 1.32 4 2 C3.566875 3.2065625 3.566875 3.2065625 3.125 4.4375 C1.81642821 8.58131067 0.88782235 12.74978663 0 17 C-0.33 17 -0.66 17 -1 17 C-1.33 12.05 -1.66 7.1 -2 2 C-1.34 2 -0.68 2 0 2 C0 1.34 0 0.68 0 0 Z " fill="#D4D8D3" transform="translate(369,471)"/>
<path d="M0 0 C0.33 0 0.66 0 1 0 C1 2.31 1 4.62 1 7 C0.34 7 -0.32 7 -1 7 C-1.66 10.96 -2.32 14.92 -3 19 C-3.33 19 -3.66 19 -4 19 C-4.37585163 12.20682982 -3.82681353 7.21898976 -1 1 C-0.67 0.67 -0.34 0.34 0 0 Z " fill="#F3B0B3" transform="translate(287,269)"/>
<path d="M0 0 C0.33 1.65 0.66 3.3 1 5 C-0.98 5.99 -0.98 5.99 -3 7 C-4.5 5.6875 -4.5 5.6875 -6 4 C-6 3.01 -6 2.02 -6 1 C-3 0 -3 0 0 0 Z " fill="#DCD8D8" transform="translate(543,478)"/>
<path d="M0 0 C2.25 -0.25 2.25 -0.25 5 0 C7.3125 2 7.3125 2 9 4 C9.33 3.34 9.66 2.68 10 2 C10 2.99 10 3.98 10 5 C6.37 5 2.74 5 -1 5 C-0.67 3.35 -0.34 1.7 0 0 Z " fill="#848983" transform="translate(375,477)"/>
<path d="M0 0 C7.03482474 -0.23668569 13.1834265 0.2120463 20 2 C20 2.33 20 2.66 20 3 C15.38 3 10.76 3 6 3 C6 2.67 6 2.34 6 2 C3.03 1.505 3.03 1.505 0 1 C0 0.67 0 0.34 0 0 Z " fill="#93223D" transform="translate(304,231)"/>
<path d="M0 0 C0.99 0 1.98 0 3 0 C3 5.28 3 10.56 3 16 C2.67 16 2.34 16 2 16 C1.67 14.02 1.34 12.04 1 10 C0.67 10 0.34 10 0 10 C0 6.7 0 3.4 0 0 Z " fill="#DAD6D7" transform="translate(493,472)"/>
<path d="M0 0 C2.0625 0.4375 2.0625 0.4375 4 1 C4.625 2.875 4.625 2.875 5 5 C4.34 5.66 3.68 6.32 3 7 C0.875 6.625 0.875 6.625 -1 6 C-1.042721 4.33388095 -1.04063832 2.66617115 -1 1 C-0.67 0.67 -0.34 0.34 0 0 Z " fill="#CCC8C9" transform="translate(510,472)"/>
<path d="M0 0 C1.0828125 1.11375 1.0828125 1.11375 2.1875 2.25 C4.68592573 4.69290515 7.23643202 6.8681047 10 9 C8.02 9.99 8.02 9.99 6 11 C0 5 0 5 -0.0625 2.4375 C-0.041875 1.633125 -0.02125 0.82875 0 0 Z " fill="#D5D4D9" transform="translate(33,443)"/>
<path d="M0 0 C2.31 0 4.62 0 7 0 C7 1.65 7 3.3 7 5 C5.02 5 3.04 5 1 5 C0.67 3.35 0.34 1.7 0 0 Z " fill="#7B7778" transform="translate(478,474)"/>
<path d="M0 0 C1.60717771 2.41076656 2.61542515 4.28099245 3.625 6.9375 C3.88539063 7.60652344 4.14578125 8.27554687 4.4140625 8.96484375 C5 11 5 11 5 15 C4.01 15 3.02 15 2 15 C2 12.36 2 9.72 2 7 C1.34 7 0.68 7 0 7 C0 4.69 0 2.38 0 0 Z " fill="#C33648" transform="translate(396,405)"/>
<path d="M0 0 C0.33 0 0.66 0 1 0 C1.47296268 8.1980198 1.47296268 8.1980198 -0.4375 11.4375 C-0.953125 11.953125 -1.46875 12.46875 -2 13 C-2.33 13.66 -2.66 14.32 -3 15 C-3.66 15 -4.32 15 -5 15 C-1.92482916 4.44191344 -1.92482916 4.44191344 0 0 Z " fill="#F1CCC8" transform="translate(423,413)"/>
<path d="M0 0 C0.66 0.33 1.32 0.66 2 1 C1.67 3.31 1.34 5.62 1 8 C0.01 8 -0.98 8 -2 8 C-2.12375 8.763125 -2.2475 9.52625 -2.375 10.3125 C-3 13 -3 13 -5 16 C-4.49228528 10.03435204 -2.61407872 5.36190101 0 0 Z " fill="#CD4A53" transform="translate(418,386)"/>
<path d="M0 0 C0.33 0.66 0.66 1.32 1 2 C1.78375 1.814375 2.5675 1.62875 3.375 1.4375 C6 1 6 1 8 2 C8 2.66 8 3.32 8 4 C5.69 4 3.38 4 1 4 C1 4.99 1 5.98 1 7 C0.01 7 -0.98 7 -2 7 C-1.125 1.125 -1.125 1.125 0 0 Z " fill="#8C8C8A" transform="translate(246,475)"/>
<path d="M0 0 C2.31 0 4.62 0 7 0 C7 2.66666667 7 5.33333333 7 8 C6.01 8 5.02 8 4 8 C4 6.02 4 4.04 4 2 C2.68 2 1.36 2 0 2 C0 1.34 0 0.68 0 0 Z " fill="#949492" transform="translate(268,469)"/>
<path d="M0 0 C2.475 0.495 2.475 0.495 5 1 C5 1.66 5 2.32 5 3 C5.66 3 6.32 3 7 3 C7 3.66 7 4.32 7 5 C7.66 5 8.32 5 9 5 C9 5.66 9 6.32 9 7 C9.66 7 10.32 7 11 7 C11 7.66 11 8.32 11 9 C5.70841026 7.59928507 3.22521956 4.14512755 0 0 Z " fill="#BC323F" transform="translate(463,439)"/>
<path d="M0 0 C0.33 0 0.66 0 1 0 C1 1.98 1 3.96 1 6 C-3.17737474 7.59138085 -6.53160785 8.21278058 -11 8 C-7 6 -7 6 -4.9375 5.125 C-2.617748 3.77804723 -1.52385206 2.17693151 0 0 Z " fill="#FAADA6" transform="translate(614,444)"/>
<path d="M0 0 C2.97 0 5.94 0 9 0 C9 0.99 9 1.98 9 3 C6.03 3 3.06 3 0 3 C0 2.01 0 1.02 0 0 Z " fill="#121811" transform="translate(406,477)"/>
<path d="M0 0 C0 1.98 0 3.96 0 6 C-1.32 6 -2.64 6 -4 6 C-4.33 4.35 -4.66 2.7 -5 1 C-3 0 -3 0 0 0 Z " fill="#726E6F" transform="translate(528,469)"/>
<path d="M0 0 C1.41793467 2.82303736 2.83362706 5.64562529 4.1875 8.5 C4.55230469 9.2528125 4.91710937 10.005625 5.29296875 10.78125 C6 13 6 13 5 17 C4.01 14.03 3.02 11.06 2 8 C1.34 8 0.68 8 0 8 C0 5.36 0 2.72 0 0 Z " fill="#C4324C" transform="translate(386,377)"/>
<path d="M0 0 C6.6 0 13.2 0 20 0 C20 0.33 20 0.66 20 1 C18.46279297 1.09087891 18.46279297 1.09087891 16.89453125 1.18359375 C15.53384305 1.26805026 14.17316657 1.35269567 12.8125 1.4375 C12.13896484 1.47681641 11.46542969 1.51613281 10.77148438 1.55664062 C7.10300898 1.78927565 3.58305794 2.17207011 0 3 C0 2.01 0 1.02 0 0 Z " fill="#ECCCD9" transform="translate(476,385)"/>
<path d="M0 0 C0.80566406 0.00322266 1.61132812 0.00644531 2.44140625 0.00976562 C3.70404297 0.02233398 3.70404297 0.02233398 4.9921875 0.03515625 C5.84167969 0.03966797 6.69117188 0.04417969 7.56640625 0.04882812 C9.66669659 0.06062751 11.7669508 0.07856319 13.8671875 0.09765625 C13.8671875 0.75765625 13.8671875 1.41765625 13.8671875 2.09765625 C12.31257813 2.08025391 12.31257813 2.08025391 10.7265625 2.0625 C9.35677264 2.05311788 7.98698082 2.04401813 6.6171875 2.03515625 C5.93527344 2.02677734 5.25335938 2.01839844 4.55078125 2.00976562 C1.17376196 1.99337233 -1.90572889 2.04136857 -5.1328125 3.09765625 C-5.4628125 2.43765625 -5.7928125 1.77765625 -6.1328125 1.09765625 C-3.8362755 -0.05061225 -2.54968083 -0.0179555 0 0 Z " fill="#8D2533" transform="translate(304.1328125,255.90234375)"/>
<path d="M0 0 C0.66 0 1.32 0 2 0 C5 6.625 5 6.625 5 10 C2 10 2 10 0 9 C0 6.03 0 3.06 0 0 Z " fill="#DDDADB" transform="translate(531,478)"/>
<path d="M0 0 C4.62 0 9.24 0 14 0 C11.66997945 2.33002055 10.75309505 2.41956957 7.5625 2.8125 C6.78003906 2.92207031 5.99757813 3.03164063 5.19140625 3.14453125 C3 3 3 3 0 0 Z " fill="#CEC9E9" transform="translate(47,436)"/>
<path d="M0 0 C2.375 -0.125 2.375 -0.125 5 0 C5.66 0.66 6.32 1.32 7 2 C7.66 2.33 8.32 2.66 9 3 C9 3.66 9 4.32 9 5 C5.87709365 4.51421457 3.00419641 4.0013988 0 3 C0 2.01 0 1.02 0 0 Z " fill="#D6D0ED" transform="translate(47,395)"/>
<path d="M0 0 C-0.66 0.66 -1.32 1.32 -2 2 C-5.0390625 1.9765625 -5.0390625 1.9765625 -8.625 1.625 C-9.81351562 1.51414062 -11.00203125 1.40328125 -12.2265625 1.2890625 C-13.14179687 1.19367188 -14.05703125 1.09828125 -15 1 C-15 0.67 -15 0.34 -15 0 C-13.25360243 -0.39143394 -11.50264082 -0.76254287 -9.75 -1.125 C-8.77546875 -1.33382813 -7.8009375 -1.54265625 -6.796875 -1.7578125 C-3.76557234 -2.0202996 -2.51982654 -1.61988849 0 0 Z " fill="#CFCED5" transform="translate(131,387)"/>
<path d="M0 0 C0.99 0.33 1.98 0.66 3 1 C2.01 1.495 2.01 1.495 1 2 C0.3162955 3.32467746 -0.34964186 4.65863633 -1 6 C-1.66 6.66 -2.32 7.32 -3 8 C-3.99 8 -4.98 8 -6 8 C-4.768606 4.30581799 -2.79208646 2.64890254 0 0 Z " fill="#EBB7C2" transform="translate(382,320)"/>
<path d="M0 0 C4.62 0 9.24 0 14 0 C12.515 1.485 12.515 1.485 11 3 C8.125 2.75 8.125 2.75 5 2 C4.05125 1.814375 3.1025 1.62875 2.125 1.4375 C1.42375 1.293125 0.7225 1.14875 0 1 C0 0.67 0 0.34 0 0 Z " fill="#CDC8E6" transform="translate(47,453)"/>
<path d="M0 0 C0.33 0.66 0.66 1.32 1 2 C1.66 2.33 2.32 2.66 3 3 C2.67 7.62 2.34 12.24 2 17 C1.67 17 1.34 17 1 17 C0.93941406 16.26394531 0.87882813 15.52789062 0.81640625 14.76953125 C0.73261719 13.79371094 0.64882812 12.81789063 0.5625 11.8125 C0.48128906 10.84957031 0.40007812 9.88664062 0.31640625 8.89453125 C0.04941042 6.0001302 0.04941042 6.0001302 -0.59765625 3.19921875 C-0.73042969 2.47347656 -0.86320313 1.74773437 -1 1 C-0.67 0.67 -0.34 0.34 0 0 Z " fill="#CBCCC6" transform="translate(188,408)"/>
<path d="M0 0 C0 0.66 0 1.32 0 2 C0.66 2 1.32 2 2 2 C2 2.66 2 3.32 2 4 C-2.455 4.495 -2.455 4.495 -7 5 C-2.25 0 -2.25 0 0 0 Z " fill="#7A5261" transform="translate(394,238)"/>
<path d="M0 0 C2.475 0.495 2.475 0.495 5 1 C4.67 2.32 4.34 3.64 4 5 C3.01 5 2.02 5 1 5 C0.67 3.35 0.34 1.7 0 0 Z " fill="#DDDADB" transform="translate(524,480)"/>
<path d="M0 0 C0.66 0 1.32 0 2 0 C2.2475 0.61875 2.495 1.2375 2.75 1.875 C4.20628639 4.35068687 5.37812506 4.95125002 8 6 C5.66705225 6.04241723 3.33297433 6.04092937 1 6 C0 5 0 5 -0.0625 2.4375 C-0.041875 1.633125 -0.02125 0.82875 0 0 Z " fill="#1A1614" transform="translate(460,480)"/>
<path d="M0 0 C2.475 0.99 2.475 0.99 5 2 C5.33 1.34 5.66 0.68 6 0 C5.67 1.32 5.34 2.64 5 4 C1.25 5.125 1.25 5.125 -1 4 C-0.67 2.68 -0.34 1.36 0 0 Z " fill="#C9CDC4" transform="translate(431,472)"/>
<path d="M0 0 C3.40312738 1.05875074 6.01353231 2.00902154 9 4 C9 4.66 9 5.32 9 6 C4.64464931 4.83857315 2.35380297 3.92300495 0 0 Z " fill="#635993" transform="translate(37,408)"/>
<path d="M0 0 C0.66 0.33 1.32 0.66 2 1 C1.01 3.97 0.02 6.94 -1 10 C-1.33 10 -1.66 10 -2 10 C-2.1953125 3.9453125 -2.1953125 3.9453125 -2 2 C-1.34 1.34 -0.68 0.68 0 0 Z " fill="#D6323F" transform="translate(426,400)"/>
<path d="M0 0 C2.64 0 5.28 0 8 0 C8 1.32 8 2.64 8 4 C2.25 2.25 2.25 2.25 0 0 Z " fill="#F6CEDC" transform="translate(328,234)"/>
<path d="M0 0 C1.32 0 2.64 0 4 0 C4 0.66 4 1.32 4 2 C3.34 2 2.68 2 2 2 C1.67 4.31 1.34 6.62 1 9 C0.34 9 -0.32 9 -1 9 C-0.67 6.03 -0.34 3.06 0 0 Z " fill="#CDD3C9" transform="translate(426,468)"/>
<path d="M0 0 C0.66 0 1.32 0 2 0 C2 0.66 2 1.32 2 2 C2.66 2 3.32 2 4 2 C4 4.64 4 7.28 4 10 C2.26337666 6.77484237 1.1094072 3.48670834 0 0 Z " fill="#BD2F37" transform="translate(388,422)"/>
<path d="M0 0 C1.25541557 3.76624671 0.37061958 5.37188934 -1 9 C-1.66 9 -2.32 9 -3 9 C-2.44271087 5.65626525 -1.64826111 2.96687001 0 0 Z " fill="#D73446" transform="translate(461,401)"/>
<path d="M0 0 C0.66 0.33 1.32 0.66 2 1 C2.625 3.0625 2.625 3.0625 3 5 C1.125 5.625 1.125 5.625 -1 6 C-1.66 5.34 -2.32 4.68 -3 4 C-2.01 2.68 -1.02 1.36 0 0 Z " fill="#815566" transform="translate(338,290)"/>
<path d="M0 0 C1.32 0 2.64 0 4 0 C4 0.66 4 1.32 4 2 C5.32 2.33 6.64 2.66 8 3 C7.67 3.99 7.34 4.98 7 6 C5.83054208 5.19152271 4.66449539 4.37810888 3.5 3.5625 C2.8503125 3.11003906 2.200625 2.65757812 1.53125 2.19140625 C1.0259375 1.79824219 0.520625 1.40507812 0 1 C0 0.67 0 0.34 0 0 Z " fill="#E8BEC8" transform="translate(336,238)"/>
<path d="M0 0 C1.98 0.495 1.98 0.495 4 1 C4.33 2.32 4.66 3.64 5 5 C2.13275314 4.42655063 1.1385485 4.1385485 -1 2 C-0.67 1.34 -0.34 0.68 0 0 Z " fill="#272322" transform="translate(468,474)"/>
<path d="M0 0 C1.65 0 3.3 0 5 0 C4.67 1.32 4.34 2.64 4 4 C2.68 4 1.36 4 0 4 C0 2.68 0 1.36 0 0 Z " fill="#828278" transform="translate(439,469)"/>
<path d="M0 0 C1.63001953 0.01353516 1.63001953 0.01353516 3.29296875 0.02734375 C4.12441406 0.03894531 4.95585937 0.05054688 5.8125 0.0625 C5.8125 0.3925 5.8125 0.7225 5.8125 1.0625 C4.76449219 1.15337891 4.76449219 1.15337891 3.6953125 1.24609375 C2.78523437 1.32988281 1.87515625 1.41367187 0.9375 1.5 C0.03257812 1.58121094 -0.87234375 1.66242188 -1.8046875 1.74609375 C-4.19860861 1.93239285 -4.19860861 1.93239285 -6.1875 3.0625 C-7.1775 2.4025 -8.1675 1.7425 -9.1875 1.0625 C-5.90230525 -0.03256492 -3.45086585 -0.03710608 0 0 Z " fill="#C7C1E4" transform="translate(221.1875,452.9375)"/>
<path d="M0 0 C1.16945792 0.80847729 2.33550461 1.62189112 3.5 2.4375 C4.47453125 3.11619141 4.47453125 3.11619141 5.46875 3.80859375 C5.9740625 4.20175781 6.479375 4.59492188 7 5 C7 5.33 7 5.66 7 6 C4.625 6.1875 4.625 6.1875 2 6 C0 3 0 3 0 0 Z " fill="#DDDAEC" transform="translate(198,443)"/>
<path d="M0 0 C1.32 0 2.64 0 4 0 C4 2.64 4 5.28 4 8 C3.67 8 3.34 8 3 8 C2.67 6.35 2.34 4.7 2 3 C1.01 3.495 1.01 3.495 0 4 C0 2.68 0 1.36 0 0 Z " fill="#AB2B27" transform="translate(506,442)"/>
<path d="M0 0 C1.98 0 3.96 0 6 0 C5.67 0.66 5.34 1.32 5 2 C4.01 2 3.02 2 2 2 C2 2.66 2 3.32 2 4 C1.01 3.67 0.02 3.34 -1 3 C-0.67 2.01 -0.34 1.02 0 0 Z " fill="#DAD5EF" transform="translate(50,381)"/>
</svg>
